<svg width="119" height="46" viewBox="0 0 119 46" fill="none" xmlns="http://www.w3.org/2000/svg">
<path d="M28.4688 14.9062C28.6562 14.9479 28.8438 15.0208 29.0312 15.125C29.0729 15.1667 29.0938 15.2396 29.0938 15.3438C29.1146 15.4271 29.1458 15.4896 29.1875 15.5312C29.1667 15.8021 29.0938 15.9896 28.9688 16.0938C28.8646 16.1771 28.7396 16.2396 28.5938 16.2812C28.4479 16.3021 28.2917 16.2917 28.125 16.25C27.9792 16.2083 27.8646 16.125 27.7812 16C27.7604 15.9167 27.7396 15.8438 27.7188 15.7812C27.6979 15.6979 27.6875 15.6042 27.6875 15.5C27.7292 15.3958 27.7812 15.3125 27.8438 15.25C27.9271 15.1667 28.0104 15.0833 28.0938 15C28.1562 14.9792 28.2188 14.9688 28.2812 14.9688C28.3646 14.9479 28.4271 14.9271 28.4688 14.9062ZM27.4062 17.6562C27.3854 17.5521 27.3646 17.4792 27.3438 17.4375C27.3229 17.3958 27.3229 17.3438 27.3438 17.2812C27.3854 17.1354 27.4896 17.0938 27.6562 17.1562C27.8229 17.1979 27.9167 17.2604 27.9375 17.3438C27.9583 17.4688 27.8958 17.5833 27.75 17.6875C27.625 17.7708 27.5104 17.7604 27.4062 17.6562ZM28.3125 22.875C28.3542 22.625 28.4688 22.3958 28.6562 22.1875C28.8438 21.9792 29.0833 21.9062 29.375 21.9688C29.4375 22.0104 29.4896 22.0625 29.5312 22.125C29.5729 22.1667 29.6146 22.2083 29.6562 22.25C29.7188 22.4167 29.7083 22.5729 29.625 22.7188C29.5625 22.8438 29.5104 22.9688 29.4688 23.0938C29.3229 23.2188 29.1979 23.3021 29.0938 23.3438C29.0104 23.3646 28.9167 23.375 28.8125 23.375C28.7292 23.3542 28.6458 23.3229 28.5625 23.2812C28.5 23.2396 28.4688 23.1667 28.4688 23.0625L28.3125 22.875ZM31.5 22.625C31.6042 22.6875 31.6562 22.7708 31.6562 22.875C31.6771 22.9792 31.6667 23.0833 31.625 23.1875C31.5833 23.2917 31.5208 23.3854 31.4375 23.4688C31.3542 23.5312 31.2708 23.5521 31.1875 23.5312C31.125 23.4896 31.0833 23.4375 31.0625 23.375C31.0417 23.2917 31.0104 23.2292 30.9688 23.1875C30.9896 22.8125 31.1667 22.625 31.5 22.625ZM36.8438 29.6875C36.7188 29.7083 36.625 29.7083 36.5625 29.6875C36.5 29.6458 36.4375 29.6042 36.375 29.5625C36.2917 29.5208 36.2188 29.5 36.1562 29.5C36.1146 29.5 36.0729 29.4792 36.0312 29.4375C35.9896 29.3958 35.9583 29.3438 35.9375 29.2812C35.9375 29.1979 35.9375 29.1354 35.9375 29.0938C35.9583 28.9688 36.0104 28.8229 36.0938 28.6562C36.1979 28.4896 36.3125 28.3854 36.4375 28.3438C36.6875 28.2396 36.8958 28.3021 37.0625 28.5312C37.2292 28.7604 37.3021 29.0208 37.2812 29.3125C37.1979 29.375 37.1146 29.4375 37.0312 29.5C36.9688 29.5625 36.9062 29.625 36.8438 29.6875ZM26.2812 19.0938C26.1771 19.2604 26.1458 19.4688 26.1875 19.7188C26.2292 19.9479 26.2917 20.1458 26.375 20.3125C26.5 20.1875 26.6042 20.0938 26.6875 20.0312C26.7917 19.9479 26.8854 19.8542 26.9688 19.75C27.0312 19.5833 27.0938 19.4583 27.1562 19.375C27.2188 19.2917 27.3021 19.2292 27.4062 19.1875C27.4479 19.125 27.5 19.0625 27.5625 19C27.625 18.9375 27.6979 18.8854 27.7812 18.8438C27.8229 18.6771 27.9375 18.5729 28.125 18.5312C28.3333 18.4896 28.5208 18.4583 28.6875 18.4375C28.7292 18.375 28.7812 18.3333 28.8438 18.3125C28.9271 18.2708 28.9896 18.2188 29.0312 18.1562C29.2188 18.1562 29.375 18.125 29.5 18.0625C29.625 17.9792 29.7708 17.9688 29.9375 18.0312C30.0833 17.9271 30.2604 17.875 30.4688 17.875C30.6979 17.8542 30.8958 17.8229 31.0625 17.7812C31.3542 17.7604 31.5729 17.7604 31.7188 17.7812C31.8854 17.7812 32.0521 17.7604 32.2188 17.7188C32.5521 17.7396 32.75 17.7812 32.8125 17.8438C33.2292 17.8229 33.5312 17.9062 33.7188 18.0938C33.9271 18.0729 34.0833 18.1146 34.1875 18.2188C34.3125 18.3021 34.4896 18.3646 34.7188 18.4062C34.8854 18.6146 35.0312 18.7396 35.1562 18.7812C35.2812 18.8229 35.3646 18.9062 35.4062 19.0312C35.4479 19.1354 35.4583 19.2604 35.4375 19.4062C35.4167 19.5312 35.4479 19.6458 35.5312 19.75C35.5104 19.8542 35.5208 19.9688 35.5625 20.0938C35.6042 20.2188 35.6354 20.3542 35.6562 20.5C35.6354 20.625 35.6354 20.7083 35.6562 20.75C35.6979 20.7708 35.7292 20.8021 35.75 20.8438C35.7708 20.9271 35.7708 21 35.75 21.0625C35.75 21.1042 35.7812 21.1458 35.8438 21.1875C35.8229 21.375 35.8646 21.5312 35.9688 21.6562C36.0938 21.7812 36.1667 21.9271 36.1875 22.0938C36.125 22.4062 36.0938 22.625 36.0938 22.75C36.0938 22.8542 36.0729 22.9583 36.0312 23.0625C35.9479 23.3333 35.8958 23.6042 35.875 23.875C35.8542 24.125 35.7917 24.3438 35.6875 24.5312C35.6875 24.7188 35.6562 24.875 35.5938 25C35.5521 25.125 35.5417 25.2604 35.5625 25.4062C35.5625 25.5104 35.5625 25.6146 35.5625 25.7188C35.5833 25.8021 35.5625 25.875 35.5 25.9375C35.4792 26.1042 35.4583 26.2292 35.4375 26.3125C35.4167 26.3958 35.3854 26.4792 35.3438 26.5625C35.4271 26.7292 35.4583 26.9062 35.4375 27.0938C35.4375 27.2604 35.4062 27.4271 35.3438 27.5938C35.2812 27.7604 35.2083 27.9271 35.125 28.0938C35.0417 28.2396 34.9688 28.3854 34.9062 28.5312C34.8438 28.8229 34.7917 29.0833 34.75 29.3125C34.7083 29.5417 34.7396 29.8021 34.8438 30.0938C34.9688 30.2188 35.1042 30.2604 35.25 30.2188C35.4375 30.3854 35.625 30.4792 35.8125 30.5C35.875 30.5208 35.9479 30.5208 36.0312 30.5C36.1146 30.4792 36.1771 30.4792 36.2188 30.5C36.4271 30.5 36.5938 30.5625 36.7188 30.6875C36.8229 30.7917 36.8646 30.9167 36.8438 31.0625C36.8438 31.1875 36.8542 31.3333 36.875 31.5C36.875 31.625 36.8958 31.7604 36.9375 31.9062C36.9792 32.0312 37.0104 32.1771 37.0312 32.3438C37.0521 32.5729 37.0208 32.7604 36.9375 32.9062C36.875 33.0521 36.7917 33.2083 36.6875 33.375C36.625 33.4167 36.5729 33.4792 36.5312 33.5625C36.4896 33.6458 36.4375 33.7083 36.375 33.75C36.2292 33.9583 36.125 34.1042 36.0625 34.1875C36.0208 34.2708 35.9479 34.3333 35.8438 34.375C35.6771 34.4167 35.4896 34.4479 35.2812 34.4688C35.0938 34.4688 34.9271 34.4271 34.7812 34.3438C34.5729 34.3229 34.3958 34.3125 34.25 34.3125C34.1042 34.2917 34 34.2292 33.9375 34.125C33.6042 34.0625 33.3854 33.9375 33.2812 33.75C33.0521 33.6458 32.8333 33.5417 32.625 33.4375C32.4375 33.3333 32.3021 33.1667 32.2188 32.9375C32.1771 32.8958 32.125 32.8438 32.0625 32.7812C32 32.7188 31.9688 32.6354 31.9688 32.5312C31.9271 32.4896 31.9062 32.4375 31.9062 32.375C31.9062 32.2917 31.8958 32.1979 31.875 32.0938C31.875 32.0104 31.8646 31.9375 31.8438 31.875C31.8229 31.8125 31.8333 31.7708 31.875 31.75C31.7917 31.6458 31.75 31.5 31.75 31.3125C31.7708 31.125 31.8021 30.9792 31.8438 30.875C31.8438 30.75 31.8333 30.6354 31.8125 30.5312C31.8125 30.4271 31.8646 30.3542 31.9688 30.3125C32.0104 30.0625 32.0208 29.8021 32 29.5312C32 29.2604 31.9271 29.0104 31.7812 28.7812C31.8229 28.6979 31.8229 28.6146 31.7812 28.5312C31.7604 28.4479 31.7708 28.375 31.8125 28.3125C31.7292 28.1458 31.7188 27.9688 31.7812 27.7812C31.8646 27.5938 31.9271 27.4167 31.9688 27.25C32.0104 27.1458 32.0208 27.0417 32 26.9375C32 26.8333 32.0417 26.7292 32.125 26.625C32.125 26.3542 32.1667 26.1354 32.25 25.9688C32.4167 25.7396 32.5104 25.6042 32.5312 25.5625C32.5521 25.5 32.5729 25.4271 32.5938 25.3438C32.6979 25.2396 32.75 25.0938 32.75 24.9062C32.7708 24.6979 32.8021 24.5 32.8438 24.3125C32.8646 24.2292 32.875 24.1146 32.875 23.9688C32.9167 23.5729 32.875 23.2917 32.75 23.125C32.625 22.9375 32.5521 22.75 32.5312 22.5625C32.4688 22.5208 32.4167 22.4792 32.375 22.4375C32.3542 22.3958 32.3021 22.3646 32.2188 22.3438C32.1771 22.3021 32.1354 22.25 32.0938 22.1875C32.0521 22.125 32 22.0938 31.9375 22.0938C31.75 21.8854 31.6354 21.7604 31.5938 21.7188C31.5521 21.6562 31.5104 21.6042 31.4688 21.5625C31.2188 21.375 30.9896 21.2188 30.7812 21.0938C30.5729 20.9688 30.3542 20.8333 30.125 20.6875C30.0208 20.6875 29.9167 20.6875 29.8125 20.6875C29.7292 20.6875 29.6354 20.6979 29.5312 20.7188C29.4896 20.8021 29.4167 20.8438 29.3125 20.8438C29.2292 20.8438 29.1562 20.8542 29.0938 20.875C28.9688 20.9167 28.8646 20.9792 28.7812 21.0625C28.6979 21.1458 28.6042 21.2083 28.5 21.25C28.3125 21.3958 28.2292 21.4792 28.25 21.5C28.2708 21.5 28.2812 21.5208 28.2812 21.5625C28.1979 21.6042 28.1354 21.6771 28.0938 21.7812C28.0521 21.8646 27.9792 21.9479 27.875 22.0312C27.8333 22.1354 27.8021 22.2396 27.7812 22.3438C27.7604 22.4271 27.7292 22.5208 27.6875 22.625C27.5625 22.8333 27.5 22.9792 27.5 23.0625C27.5 23.125 27.4792 23.1875 27.4375 23.25C27.2917 23.4792 27.2188 23.6979 27.2188 23.9062C27.2188 24.0938 27.1667 24.2708 27.0625 24.4375C27.0625 24.6875 27.1146 24.875 27.2188 25C27.3229 25.125 27.3646 25.3125 27.3438 25.5625C27.3438 25.7292 27.3021 25.9271 27.2188 26.1562C27.1354 26.3646 27.1458 26.5521 27.25 26.7188C27.2083 26.8438 27.1875 26.9688 27.1875 27.0938C27.2083 27.1979 27.1875 27.3125 27.125 27.4375C27.2083 27.6667 27.1979 27.8646 27.0938 28.0312C27.0729 28.1979 27.0833 28.3125 27.125 28.375C27.1667 28.4375 27.2083 28.5208 27.25 28.625C27.2917 28.7917 27.3125 28.9479 27.3125 29.0938C27.3125 29.2396 27.375 29.3438 27.5 29.4062C27.5417 29.5104 27.5729 29.6146 27.5938 29.7188C27.6354 29.8229 27.6771 29.9479 27.7188 30.0938C27.7812 30.3021 27.7917 30.4896 27.75 30.6562C27.7292 30.8021 27.6667 30.9271 27.5625 31.0312C27.4375 31.3229 27.2917 31.5625 27.125 31.75C26.9583 31.9375 26.7708 32.125 26.5625 32.3125C26.4583 32.3125 26.375 32.3438 26.3125 32.4062C26.2708 32.4479 26.2188 32.4896 26.1562 32.5312C26.0104 32.5312 25.8854 32.5625 25.7812 32.625C25.6771 32.6875 25.5521 32.7396 25.4062 32.7812C24.8854 32.6771 24.4688 32.5 24.1562 32.25C23.8438 31.9792 23.5938 31.6354 23.4062 31.2188C23.3021 31.0104 23.2396 30.8021 23.2188 30.5938C23.2188 30.3854 23.1979 30.1979 23.1562 30.0312C23.2188 29.9271 23.25 29.8229 23.25 29.7188C23.2708 29.5938 23.3021 29.4792 23.3438 29.375C23.4688 29.0833 23.5208 28.8542 23.5 28.6875C23.5 28.5208 23.5312 28.3854 23.5938 28.2812C23.5729 28.2188 23.5729 28.1562 23.5938 28.0938C23.6354 28.0104 23.6562 27.9271 23.6562 27.8438C23.6354 27.8021 23.6146 27.75 23.5938 27.6875C23.5729 27.6042 23.5938 27.5417 23.6562 27.5C23.7188 27.1875 23.7188 26.8542 23.6562 26.5C23.6146 26.1458 23.5625 25.8229 23.5 25.5312C23.5625 25.3854 23.5729 25.2604 23.5312 25.1562C23.4896 25.0521 23.4792 24.9479 23.5 24.8438C23.4167 24.6146 23.3958 24.3958 23.4375 24.1875C23.4792 23.9583 23.4583 23.7396 23.375 23.5312C23.4167 23.4688 23.4271 23.3958 23.4062 23.3125C23.3854 23.2292 23.375 23.1458 23.375 23.0625C23.3958 22.9375 23.4271 22.8229 23.4688 22.7188C23.5104 22.6146 23.5521 22.5 23.5938 22.375C23.6354 22.2083 23.6562 22.0417 23.6562 21.875C23.6771 21.7083 23.6979 21.5417 23.7188 21.375C23.7604 21.1042 23.7917 20.9583 23.8125 20.9375C23.8333 20.875 23.8333 20.8125 23.8125 20.75C23.8125 20.6875 23.8229 20.6146 23.8438 20.5312C23.8438 20.4688 23.8438 20.4062 23.8438 20.3438C23.8646 20.2604 23.875 20.1875 23.875 20.125C23.75 19.8542 23.6771 19.6562 23.6562 19.5312C23.6562 19.3854 23.625 19.25 23.5625 19.125C23.3958 18.9792 23.25 18.8021 23.125 18.5938C23 18.3646 22.9167 18.1042 22.875 17.8125C22.8542 17.625 22.8542 17.4688 22.875 17.3438C22.8958 17.1979 22.9583 17.0729 23.0625 16.9688C23.2917 16.8646 23.4271 16.7917 23.4688 16.75C23.5104 16.7083 23.5625 16.6979 23.625 16.7188C23.7917 16.4896 23.9271 16.3646 24.0312 16.3438C24.1354 16.3021 24.2188 16.25 24.2812 16.1875C24.3854 16.2083 24.4583 16.2083 24.5 16.1875C24.5625 16.1667 24.625 16.1771 24.6875 16.2188C24.7917 16.2188 24.8854 16.2188 24.9688 16.2188C25.0521 16.1979 25.1354 16.2083 25.2188 16.25C25.4271 16.4167 25.5625 16.5 25.625 16.5C25.7083 16.5 25.7708 16.5208 25.8125 16.5625C25.8542 16.5833 25.8958 16.625 25.9375 16.6875C26 16.75 26.0625 16.7917 26.125 16.8125C26.1875 17.0208 26.2083 17.1354 26.1875 17.1562C26.2708 17.2604 26.3229 17.3958 26.3438 17.5625C26.3646 17.7083 26.4167 17.8333 26.5 17.9375C26.4583 18.1458 26.3854 18.3438 26.2812 18.5312C26.1979 18.7188 26.1979 18.9062 26.2812 19.0938ZM37.9766 33.8555C38.1406 33.668 38.3398 33.5859 38.5742 33.6094C38.8086 33.6328 38.9492 33.7734 38.9961 34.0312C39.043 34.2188 39.0312 34.4531 38.9609 34.7344C38.8906 34.9922 38.7734 35.1797 38.6094 35.2969C38.2812 35.4141 38.082 35.4727 38.0117 35.4727C37.9648 35.4492 37.8945 35.4141 37.8008 35.3672C37.6367 35.0625 37.5898 34.8398 37.6602 34.6992C37.7305 34.5352 37.7891 34.3594 37.8359 34.1719L37.9766 33.8555ZM39.0312 15.0117C38.9844 15.1055 38.9375 15.1992 38.8906 15.293C38.8438 15.3633 38.7617 15.4219 38.6445 15.4688C38.5273 15.4453 38.3984 15.4219 38.2578 15.3984C38.1172 15.3516 38.0234 15.2695 37.9766 15.1523C38.0234 15.0352 38.0352 14.9297 38.0117 14.8359C37.9883 14.7422 38.0117 14.6484 38.082 14.5547C38.0352 14.3438 38.1055 14.2148 38.293 14.168C38.5039 14.1211 38.668 14.1562 38.7852 14.2734C38.8555 14.3672 38.9258 14.4727 38.9961 14.5898C39.0664 14.6836 39.0781 14.8242 39.0312 15.0117ZM45.0781 9.91406C44.9609 9.91406 44.9023 9.82031 44.9023 9.63281C44.9023 9.44531 44.9492 9.33984 45.043 9.31641C45.0898 9.03516 45.2422 8.88281 45.5 8.85938C45.7578 8.85938 45.9453 8.92969 46.0625 9.07031C46.1797 9.1875 46.25 9.33984 46.2734 9.52734C46.2969 9.71484 46.2617 9.90234 46.168 10.0898C46.0977 10.2539 45.9805 10.3594 45.8164 10.4062C45.6758 10.4531 45.5469 10.4414 45.4297 10.3711C45.3359 10.3008 45.2305 10.207 45.1133 10.0898L45.0781 9.91406ZM47.6445 9.91406C47.5273 10.0078 47.3867 10.043 47.2227 10.0195C47.082 9.97266 46.9766 9.89063 46.9062 9.77344C46.9062 9.39844 47.0352 9.21094 47.293 9.21094C47.4102 9.25781 47.5039 9.33984 47.5742 9.45703C47.668 9.57422 47.6914 9.72656 47.6445 9.91406ZM48.2773 17.0156C48.5352 17.1562 48.6523 17.3906 48.6289 17.7188C48.6289 18.0469 48.5 18.2812 48.2422 18.4219C47.9609 18.3984 47.7383 18.3164 47.5742 18.1758C47.4102 18.0352 47.2695 17.8828 47.1523 17.7188C47.1758 17.3906 47.2344 17.2031 47.3281 17.1562C47.4453 17.0859 47.5859 17.0273 47.75 16.9805C47.8672 16.957 47.9492 16.9453 47.9961 16.9453C48.0664 16.9219 48.1602 16.9453 48.2773 17.0156ZM46.2031 19.0195C46.1797 18.7383 46.2734 18.5273 46.4844 18.3867C46.7188 18.2227 46.9414 18.1641 47.1523 18.2109C47.3398 18.3516 47.4219 18.5508 47.3984 18.8086C47.2344 19.1602 47.0469 19.3594 46.8359 19.4062C46.6484 19.4531 46.4961 19.418 46.3789 19.3008L46.2031 19.0195ZM62.6914 25.5234C62.9492 25.4297 63.2188 25.4648 63.5 25.6289C63.7812 25.793 63.8633 26.0508 63.7461 26.4023C63.582 26.6836 63.4766 26.8594 63.4297 26.9297C63.4062 27 63.3359 27.0469 63.2188 27.0703C63.1016 27.0234 62.9609 26.9883 62.7969 26.9648C62.6562 26.9414 62.5859 26.8359 62.5859 26.6484C62.5625 26.5312 62.5273 26.4141 62.4805 26.2969C62.457 26.1797 62.4922 26.0977 62.5859 26.0508C62.5391 25.957 62.5273 25.875 62.5508 25.8047C62.5977 25.7109 62.6445 25.6172 62.6914 25.5234ZM57.9102 18.668C57.5586 18.7852 57.2891 18.7266 57.1016 18.4922C56.9141 18.2344 56.8555 17.9414 56.9258 17.6133C56.9961 17.2852 57.0781 17.0977 57.1719 17.0508C57.2891 17.0039 57.3594 16.9102 57.3828 16.7695C57.7109 16.6523 57.9805 16.6992 58.1914 16.9102C58.4258 17.0977 58.5078 17.3672 58.4375 17.7188C58.4141 17.7656 58.3789 17.8242 58.332 17.8945C58.3086 17.9648 58.2852 18.0469 58.2617 18.1406C58.2383 18.2344 58.2148 18.3164 58.1914 18.3867C58.1914 18.457 58.168 18.5156 58.1211 18.5625L57.9102 18.668ZM47.6445 10.9688C47.6914 10.9688 47.7617 10.9805 47.8555 11.0039C47.9492 11.0039 48.0078 10.9922 48.0312 10.9688C48.2891 11.0625 48.5469 11.1328 48.8047 11.1797C49.0625 11.2031 49.2852 11.3086 49.4727 11.4961C49.6367 11.4961 49.8008 11.5195 49.9648 11.5664C50.1289 11.6133 50.3047 11.6719 50.4922 11.7422C50.6562 12 50.8203 12.293 50.9844 12.6211C51.1484 12.9258 51.2539 13.2305 51.3008 13.5352C51.3945 13.6289 51.4766 13.7344 51.5469 13.8516C51.6172 13.9688 51.6992 14.0859 51.793 14.2031C51.9102 14.3906 52.0742 14.5195 52.2852 14.5898C52.5195 14.6602 52.7422 14.6016 52.9531 14.4141C53.0469 14.3672 53.1406 14.2852 53.2344 14.168C53.3281 14.0273 53.4336 13.9336 53.5508 13.8867C53.7148 13.7227 53.8086 13.6406 53.832 13.6406C53.8555 13.6172 53.8672 13.5937 53.8672 13.5703C53.9375 13.4297 54.0312 13.3242 54.1484 13.2539C54.2891 12.9258 54.3828 12.7266 54.4297 12.6562C54.4766 12.5859 54.5117 12.5039 54.5352 12.4102C54.793 12.1758 55.0391 11.9531 55.2734 11.7422C55.5078 11.5078 55.7188 11.2617 55.9062 11.0039C56.1875 10.8164 56.3984 10.6875 56.5391 10.6172C56.7031 10.5234 56.8672 10.5 57.0312 10.5469C57.1953 10.4062 57.3594 10.3594 57.5234 10.4062C57.8047 10.3594 58.0625 10.2891 58.2969 10.1953C58.5312 10.1016 58.7656 10.1133 59 10.2305C59.4219 10.3242 59.7852 10.3594 60.0898 10.3359C60.418 10.3125 60.7109 10.3711 60.9688 10.5117C61.2969 10.6992 61.5078 10.8633 61.6016 11.0039C61.6953 11.1211 61.8008 11.2383 61.918 11.3555C62.082 11.4961 62.1875 11.6602 62.2344 11.8477C62.2812 12.0352 62.3867 12.1758 62.5508 12.2695C62.5273 12.3633 62.5391 12.4453 62.5859 12.5156C62.6328 12.5859 62.6445 12.6562 62.6211 12.7266C62.6914 12.8906 62.7852 13.043 62.9023 13.1836C63.0195 13.3008 63.0898 13.4531 63.1133 13.6406C63.1367 13.8281 63.125 14.0156 63.0781 14.2031C63.0547 14.3672 63.0547 14.5313 63.0781 14.6953C63.2422 15.0938 63.2539 15.4922 63.1133 15.8906C62.9961 16.2891 62.9375 16.6758 62.9375 17.0508C62.9141 17.4961 62.832 17.8828 62.6914 18.2109C62.5508 18.5391 62.457 18.8672 62.4102 19.1953C62.3633 19.3594 62.3516 19.5234 62.375 19.6875C62.3984 19.8281 62.3398 19.957 62.1992 20.0742C62.2227 20.1445 62.2109 20.2383 62.1641 20.3555C62.1406 20.4492 62.1055 20.5195 62.0586 20.5664C62.0586 20.918 62 21.1641 61.8828 21.3047C61.7891 21.4219 61.7422 21.5859 61.7422 21.7969C61.6719 22.0078 61.6719 22.1836 61.7422 22.3242C61.8359 22.4648 61.8828 22.6172 61.8828 22.7812C61.9062 22.8984 61.8945 23.0625 61.8477 23.2734C61.8242 23.4609 61.8359 23.6133 61.8828 23.7305C61.9062 23.8242 61.9414 23.918 61.9883 24.0117C62.0352 24.082 62.0469 24.1875 62.0234 24.3281C62 24.4453 61.9648 24.5508 61.918 24.6445C61.8945 24.7383 61.8828 24.8789 61.8828 25.0664C61.8828 25.1602 61.8828 25.2656 61.8828 25.3828C61.8828 25.4766 61.8711 25.5703 61.8477 25.6641C61.8008 25.9922 61.7188 26.1797 61.6016 26.2266C61.6016 26.3672 61.5781 26.5078 61.5312 26.6484C61.5078 26.7891 61.4727 26.918 61.4258 27.0352C61.4727 27.1289 61.5312 27.1875 61.6016 27.2109C61.6953 27.2344 61.7656 27.293 61.8125 27.3867C61.9297 27.3867 62.0352 27.457 62.1289 27.5977C62.2227 27.7148 62.2695 27.8555 62.2695 28.0195C62.2695 28.1367 62.2344 28.2422 62.1641 28.3359C62.1172 28.4062 62.082 28.5 62.0586 28.6172C62.0117 28.875 62.0234 29.1094 62.0938 29.3203C62.1875 29.5078 62.293 29.6719 62.4102 29.8125C62.457 30.2344 62.5273 30.5039 62.6211 30.6211C62.7383 30.7383 62.8672 30.8672 63.0078 31.0078C63.125 31.1719 63.2305 31.3477 63.3242 31.5352C63.418 31.6992 63.5234 31.8516 63.6406 31.9922C63.7344 32.1797 63.8047 32.3555 63.8516 32.5195C63.8984 32.6836 63.9219 32.8828 63.9219 33.1172C63.7109 33.5391 63.5703 33.8672 63.5 34.1016C63.4531 34.3359 63.3477 34.5469 63.1836 34.7344C63.1602 34.8516 63.0781 34.9805 62.9375 35.1211C62.7266 35.332 62.5391 35.4609 62.375 35.5078C62.2344 35.5312 62.1172 35.4844 62.0234 35.3672C61.6484 35.3203 61.3555 35.3438 61.1445 35.4375C60.957 35.5312 60.7344 35.5898 60.4766 35.6133C60.0078 35.6133 59.6914 35.4375 59.5273 35.0859C59.3633 35.0391 59.2461 34.957 59.1758 34.8398C59.1055 34.6992 59.0234 34.5703 58.9297 34.4531C58.8125 34.1484 58.707 33.8086 58.6133 33.4336C58.5195 33.0586 58.4844 32.707 58.5078 32.3789C58.3906 32.1914 58.3672 32.0156 58.4375 31.8516C58.5078 31.6875 58.5547 31.5117 58.5781 31.3242C58.5547 31.0195 58.5664 30.8203 58.6133 30.7266C58.6602 30.6328 58.625 30.5508 58.5078 30.4805C58.5781 30.4102 58.5898 30.3281 58.543 30.2344C58.4961 30.1172 58.4961 30.0352 58.543 29.9883C58.4727 29.332 58.4023 28.7344 58.332 28.1953C58.2852 27.6328 58.2852 27.1289 58.332 26.6836C58.4492 26.4258 58.4727 26.1445 58.4023 25.8398C58.332 25.5117 58.332 25.2188 58.4023 24.9609C58.4023 24.6797 58.4258 24.5156 58.4727 24.4688C58.4727 24.0938 58.5547 23.7422 58.7188 23.4141C58.6953 23.1562 58.6719 22.9102 58.6484 22.6758C58.6484 22.418 58.707 22.2305 58.8242 22.1133C58.8242 21.9492 58.8711 21.8086 58.9648 21.6914C58.9883 21.4805 59.0352 21.3047 59.1055 21.1641C59.1758 21.0234 59.2227 20.8477 59.2461 20.6367C59.457 20.4961 59.5156 20.2734 59.4219 19.9688C59.3516 19.6641 59.293 19.418 59.2461 19.2305C59.2461 19.1367 59.2578 19.0547 59.2812 18.9844C59.3047 18.8906 59.3164 18.7852 59.3164 18.668C59.3398 18.5039 59.3398 18.3516 59.3164 18.2109C59.3164 18.0703 59.3281 17.9297 59.3516 17.7891C59.3516 17.6016 59.375 17.4141 59.4219 17.2266C59.4688 17.0391 59.4219 16.875 59.2812 16.7344C59.2109 16.4062 59.1055 16.1602 58.9648 15.9961C58.8242 15.832 58.6719 15.6563 58.5078 15.4688C58.4141 15.2109 58.3672 15 58.3672 14.8359C58.1328 14.6719 57.8516 14.6484 57.5234 14.7656C57.4062 14.8125 57.2539 14.8594 57.0664 14.9062C56.9023 14.9531 56.7852 15 56.7148 15.0469C56.5742 15.1641 56.4102 15.2812 56.2227 15.3984C56.0352 15.5156 55.8828 15.668 55.7656 15.8555C55.6484 15.9961 55.5312 16.1016 55.4141 16.1719C55.2969 16.2422 55.2031 16.3359 55.1328 16.4531C55.0859 16.5703 55.0508 16.6875 55.0273 16.8047C55.0273 16.8984 54.9922 16.9922 54.9219 17.0859C54.7812 17.4141 54.6875 17.7188 54.6406 18C54.5938 18.2578 54.5469 18.5391 54.5 18.8438C54.4531 19.0312 54.3828 19.2422 54.2891 19.4766C54.1953 19.6875 54.1133 19.9102 54.043 20.1445C54.0664 20.4023 54.0312 20.6367 53.9375 20.8477C53.8438 21.0352 53.8086 21.2344 53.832 21.4453C53.832 21.6562 53.8438 21.8906 53.8672 22.1484C53.9141 22.4062 53.9258 22.6406 53.9023 22.8516C53.9492 23.0156 53.9492 23.2148 53.9023 23.4492C53.8789 23.6602 53.832 23.8242 53.7617 23.9414C53.7852 24.1289 53.7617 24.3398 53.6914 24.5742C53.6445 24.7852 53.6094 24.9844 53.5859 25.1719C53.4922 25.5234 53.5039 25.8867 53.6211 26.2617C53.7617 26.6133 53.8086 27 53.7617 27.4219C53.7617 27.6328 53.7852 27.832 53.832 28.0195C53.8789 28.1836 53.8906 28.3359 53.8672 28.4766C53.7734 28.6406 53.7148 28.8164 53.6914 29.0039C53.6914 29.168 53.7148 29.3789 53.7617 29.6367C53.7852 29.7773 53.8438 29.9414 53.9375 30.1289C54.0312 30.293 54.043 30.4688 53.9727 30.6562C54.0195 30.8438 54.0195 31.0078 53.9727 31.1484C53.9492 31.2656 53.9375 31.3828 53.9375 31.5C53.9844 31.875 53.9961 32.2266 53.9727 32.5547C53.9727 32.8828 53.9492 33.1758 53.9023 33.4336C53.8789 33.5508 53.8438 33.668 53.7969 33.7852C53.75 33.9023 53.7266 34.0195 53.7266 34.1367C53.7031 34.207 53.7031 34.2773 53.7266 34.3477C53.7734 34.3945 53.7969 34.4531 53.7969 34.5234C53.8203 34.9219 53.7031 35.25 53.4453 35.5078C53.1406 35.6719 52.8711 35.8359 52.6367 36C52.4258 36.1406 52.1797 36.1875 51.8984 36.1406C51.7812 36.1875 51.6641 36.2109 51.5469 36.2109C51.4531 36.2344 51.3477 36.2461 51.2305 36.2461C51.0664 36.1523 50.8906 36.1055 50.7031 36.1055C50.5156 36.1055 50.3398 36.082 50.1758 36.0352C49.918 36.0117 49.7422 35.9297 49.6484 35.7891C49.5781 35.6484 49.4609 35.543 49.2969 35.4727C49.1562 35.3555 49.0742 35.2383 49.0508 35.1211C49.0273 34.9805 48.9922 34.875 48.9453 34.8047C48.9219 34.6172 48.9102 34.4531 48.9102 34.3125C48.9102 34.1719 48.8516 34.043 48.7344 33.9258C48.7109 33.8086 48.7344 33.6914 48.8047 33.5742C48.8984 33.4336 48.9453 33.3047 48.9453 33.1875C48.9688 33.1406 48.9805 33.0703 48.9805 32.9766C49.0039 32.8594 49.0391 32.7773 49.0859 32.7305C49.0391 32.6367 49.0273 32.5547 49.0508 32.4844C49.0742 32.3906 49.0859 32.2852 49.0859 32.168C49.1797 31.957 49.2617 31.7695 49.332 31.6055C49.4023 31.418 49.4727 31.2188 49.543 31.0078C49.5898 30.8438 49.6484 30.6914 49.7188 30.5508C49.8125 30.4102 49.8828 30.2812 49.9297 30.1641C50.0234 29.9531 50.1055 29.7891 50.1758 29.6719C50.1055 29.5547 50.082 29.3906 50.1055 29.1797C50.1289 28.9688 50.0938 28.8047 50 28.6875C50 28.5703 50 28.4531 50 28.3359C50 28.1953 50.0234 28.0664 50.0703 27.9492C49.9766 27.8789 49.9414 27.7969 49.9648 27.7031C49.9883 27.5859 49.9883 27.4805 49.9648 27.3867C49.9648 27.1992 49.9883 27.0117 50.0352 26.8242C50.1055 26.6367 50.1055 26.4727 50.0352 26.332C50.0352 26.1914 50.0117 26.0273 49.9648 25.8398C49.9414 25.6289 49.9883 25.4648 50.1055 25.3477C50.0352 25.3008 50.0117 25.2188 50.0352 25.1016C50.0586 24.9609 50.0938 24.8672 50.1406 24.8203C50.0469 24.6328 50.0234 24.5039 50.0703 24.4336C50.0234 23.9883 50.0117 23.5781 50.0352 23.2031C50.082 22.8281 50.1289 22.4766 50.1758 22.1484C50.1289 21.9609 50.1055 21.8203 50.1055 21.7266C50.1289 21.6094 50.1641 21.5273 50.2109 21.4805C50.1875 21.3867 50.1641 21.3164 50.1406 21.2695C50.1406 21.1992 50.1641 21.1406 50.2109 21.0938C50.1875 20.8828 50.1992 20.6953 50.2461 20.5312C50.293 20.3438 50.3398 20.1797 50.3867 20.0391C50.457 19.875 50.5156 19.7227 50.5625 19.582C50.6094 19.418 50.6211 19.2305 50.5977 19.0195C50.5273 18.9023 50.4688 18.7617 50.4219 18.5977C50.3984 18.4336 50.3633 18.2695 50.3164 18.1055C50.2695 17.9883 50.2109 17.8945 50.1406 17.8242C50.0703 17.7305 50.0117 17.6367 49.9648 17.543C49.9414 17.4023 49.8828 17.332 49.7891 17.332C49.7188 17.3086 49.707 17.25 49.7539 17.1562C49.5898 16.8984 49.4844 16.7695 49.4375 16.7695C49.3203 16.5117 49.1797 16.2891 49.0156 16.1016C48.875 15.9141 48.6992 15.7266 48.4883 15.5391C48.3008 15.5156 48.0547 15.5391 47.75 15.6094C47.4688 15.6563 47.2695 15.7383 47.1523 15.8555C46.918 16.0664 46.6367 16.2891 46.3086 16.5234C46.0039 16.7578 45.7227 16.9805 45.4648 17.1914C45.418 17.2852 45.3711 17.3672 45.3242 17.4375C45.2773 17.5078 45.207 17.5664 45.1133 17.6133C45.043 17.7539 44.9492 17.8828 44.832 18C44.7148 18.0938 44.6328 18.2227 44.5859 18.3867C44.3984 18.668 44.2812 18.9375 44.2344 19.1953C44.1875 19.4297 44.1406 19.6758 44.0938 19.9336C44.0469 20.4961 43.9766 20.9531 43.8828 21.3047C43.7891 21.6328 43.7305 21.9961 43.707 22.3945C43.8008 22.793 43.7891 23.1328 43.6719 23.4141C43.5781 23.6719 43.5664 23.8945 43.6367 24.082C43.5898 24.5508 43.543 25.0078 43.4961 25.4531C43.4727 25.875 43.5078 26.3086 43.6016 26.7539C43.6484 26.8945 43.6836 27.0352 43.707 27.1758C43.7305 27.3164 43.7539 27.457 43.7773 27.5977C43.8008 27.7852 43.7891 27.9727 43.7422 28.1602C43.7188 28.3477 43.707 28.5352 43.707 28.7227C43.7305 28.8867 43.7656 29.0391 43.8125 29.1797C43.8594 29.3203 43.8711 29.4727 43.8477 29.6367C44.0352 30.0117 44.1289 30.3867 44.1289 30.7617C44.1523 31.1133 44.2109 31.4531 44.3047 31.7812C44.375 31.9688 44.4336 32.1328 44.4805 32.2734C44.5508 32.3906 44.5859 32.5312 44.5859 32.6953C44.5859 32.7656 44.5977 32.8594 44.6211 32.9766C44.6445 33.0938 44.6445 33.1992 44.6211 33.293C44.5742 33.5742 44.4453 33.8086 44.2344 33.9961C44.0234 34.582 43.6367 35.0273 43.0742 35.332C43.0273 35.3789 42.957 35.4258 42.8633 35.4727C42.793 35.4961 42.7344 35.5078 42.6875 35.5078C42.6172 35.5547 42.5234 35.625 42.4062 35.7188C42.2891 35.8125 42.1719 35.8594 42.0547 35.8594C41.9375 35.8594 41.832 35.8359 41.7383 35.7891C41.6445 35.7188 41.5508 35.707 41.457 35.7539C41.1055 35.707 40.8008 35.6953 40.543 35.7188C40.3086 35.7188 40.0977 35.6367 39.9102 35.4727C39.8633 35.4258 39.8281 35.3672 39.8047 35.2969C39.8047 35.2031 39.8398 35.1328 39.9102 35.0859C39.8164 34.8047 39.7461 34.5703 39.6992 34.3828C39.6758 34.1953 39.6758 34.0664 39.6992 33.9961C39.7227 33.7852 39.6992 33.6211 39.6289 33.5039C39.582 33.3633 39.5469 33.2227 39.5234 33.082C39.5469 32.9414 39.5469 32.8125 39.5234 32.6953C39.5 32.5547 39.5 32.4258 39.5234 32.3086C39.5234 32.168 39.5469 32.0508 39.5938 31.957C39.6406 31.8398 39.6523 31.7227 39.6289 31.6055C39.6055 31.5352 39.5586 31.4883 39.4883 31.4648C39.4414 31.418 39.3945 31.3594 39.3477 31.2891C39.2773 31.1016 39.2188 30.9844 39.1719 30.9375C38.9844 30.4922 38.9258 30.1758 38.9961 29.9883C39.0898 29.8008 39.1484 29.5781 39.1719 29.3203C39.2188 29.2266 39.2422 29.1445 39.2422 29.0742C39.2656 28.9805 39.3125 28.9102 39.3828 28.8633C39.3359 28.8164 39.3242 28.7578 39.3477 28.6875C39.3945 28.5938 39.4531 28.5234 39.5234 28.4766C39.5469 28.3594 39.5703 28.2539 39.5938 28.1602C39.6172 28.043 39.6523 27.9375 39.6992 27.8438C39.6758 27.6328 39.6758 27.4688 39.6992 27.3516C39.7227 27.2109 39.7461 27.1055 39.7695 27.0352C39.793 26.8008 39.8398 26.5898 39.9102 26.4023C39.9805 26.1914 40.0273 25.9805 40.0508 25.7695C40.0508 25.6055 40.0391 25.5 40.0156 25.4531C40.0156 25.3828 40.0391 25.3242 40.0859 25.2773C40.1094 25.0898 40.1211 24.9141 40.1211 24.75C40.1445 24.5859 40.1914 24.4453 40.2617 24.3281L40.4023 23.2734C40.4492 23.1094 40.4609 23.0156 40.4375 22.9922C40.4375 22.9688 40.4375 22.9336 40.4375 22.8867C40.4375 22.4883 40.4492 22.1836 40.4727 21.9727C40.4961 21.7617 40.4844 21.5859 40.4375 21.4453C40.3906 21.2812 40.3789 21.1055 40.4023 20.918C40.4492 20.707 40.4492 20.5078 40.4023 20.3203C40.3789 20.0625 40.3438 19.8633 40.2969 19.7227C40.2734 19.5586 40.2734 19.4062 40.2969 19.2656C40.2266 18.9141 40.1445 18.5508 40.0508 18.1758C40.0273 17.9883 40.0273 17.8242 40.0508 17.6836C40.0977 17.5195 40.1445 17.4023 40.1914 17.332C40.1445 17.0742 40.1914 16.8984 40.332 16.8047C40.3086 16.7344 40.2969 16.6172 40.2969 16.4531C40.3203 16.2656 40.3555 16.125 40.4023 16.0312C40.3555 15.8203 40.3555 15.6211 40.4023 15.4336C40.4492 15.2227 40.4727 15.0234 40.4727 14.8359C40.4961 14.6953 40.4844 14.543 40.4375 14.3789C40.3906 14.2148 40.3906 14.0625 40.4375 13.9219C40.3906 13.8047 40.332 13.7109 40.2617 13.6406C40.2148 13.5469 40.168 13.4414 40.1211 13.3242C40.0508 13.2773 39.9922 13.2422 39.9453 13.2188C39.8984 13.1953 39.8398 13.1602 39.7695 13.1133C39.6523 12.9258 39.5586 12.7734 39.4883 12.6562C39.418 12.5391 39.3242 12.4102 39.207 12.2695C39.043 11.9414 38.9609 11.5664 38.9609 11.1445C39.1484 10.7461 39.2656 10.4297 39.3125 10.1953C39.3828 9.9375 39.5 9.71484 39.6641 9.52734C39.6875 9.38672 39.7812 9.25781 39.9453 9.14062C40.1328 8.95312 40.2969 8.84766 40.4375 8.82422C40.6016 8.77734 40.7305 8.8125 40.8242 8.92969C41.2227 8.97656 41.5156 8.95312 41.7031 8.85938C41.8906 8.76563 42.1133 8.70703 42.3711 8.68359C42.8164 8.68359 43.1445 8.84766 43.3555 9.17578C43.4727 9.22266 43.5664 9.31641 43.6367 9.45703C43.707 9.59766 43.8008 9.72656 43.918 9.84375C44.0352 10.1484 44.1406 10.4883 44.2344 10.8633C44.3516 11.2383 44.3867 11.5898 44.3398 11.918C44.457 12.1055 44.4805 12.2813 44.4102 12.4453C44.3398 12.6094 44.293 12.7852 44.2695 12.9727L44.2344 13.5703C44.2344 13.7109 44.2344 13.8516 44.2344 13.9922C44.2344 14.1328 44.2227 14.2969 44.1992 14.4844C44.457 14.3203 44.6797 14.1445 44.8672 13.957C45.0547 13.7461 45.2188 13.5234 45.3594 13.2891C45.4766 13.1953 45.5469 13.1016 45.5703 13.0078C45.6172 12.8906 45.6992 12.7969 45.8164 12.7266C45.8867 12.5391 45.9922 12.3867 46.1328 12.2695C46.2969 12.1523 46.4375 12.0117 46.5547 11.8477C46.7422 11.7305 46.8828 11.5898 46.9766 11.4258C47.0703 11.2383 47.2109 11.1211 47.3984 11.0742L47.6445 10.9688ZM55.1328 33.5391C55.25 33.4922 55.332 33.4336 55.3789 33.3633C55.4492 33.293 55.5664 33.2578 55.7305 33.2578C55.8008 33.3516 55.8594 33.4453 55.9062 33.5391C55.9766 33.6094 56.0117 33.7383 56.0117 33.9258C56.0117 34.043 55.9883 34.1836 55.9414 34.3477C55.918 34.5117 55.8594 34.6523 55.7656 34.7695C55.7188 34.8164 55.6367 34.8867 55.5195 34.9805C55.4258 35.0508 55.3438 35.0859 55.2734 35.0859C55.0625 34.8984 54.9219 34.7812 54.8516 34.7344C54.8047 34.6875 54.7695 34.6055 54.7461 34.4883C54.6992 34.3242 54.7344 34.1719 54.8516 34.0312C54.9922 33.8672 55.0859 33.7031 55.1328 33.5391ZM68.8789 12.832C68.8555 12.9727 68.8789 13.0781 68.9492 13.1484C69.0195 13.2188 69.043 13.3242 69.0195 13.4648C68.7617 13.5586 68.6211 13.6055 68.5977 13.6055C68.5977 13.6055 68.5859 13.6172 68.5625 13.6406C68.3281 13.6172 68.1758 13.6055 68.1055 13.6055C68.0352 13.6055 67.9766 13.5469 67.9297 13.4297C68.0703 13.1719 68.2109 12.9844 68.3516 12.8672C68.5156 12.75 68.6914 12.7383 68.8789 12.832ZM67.3672 13.8867C67.4844 13.9336 67.5664 14.0039 67.6133 14.0977C67.6602 14.1914 67.707 14.2969 67.7539 14.4141C67.7773 14.7187 67.6836 14.9297 67.4727 15.0469C67.2852 15.1641 67.0977 15.3164 66.9102 15.5039C66.8398 15.4805 66.7695 15.4805 66.6992 15.5039C66.6523 15.5273 66.5703 15.5273 66.4531 15.5039C66.3828 15.4336 66.3125 15.3164 66.2422 15.1523C66.2656 14.8477 66.2891 14.625 66.3125 14.4844C66.3359 14.3438 66.3711 14.2148 66.418 14.0977C66.6758 13.9805 66.8633 13.9219 66.9805 13.9219C67.1211 13.8984 67.25 13.8867 67.3672 13.8867ZM72.1836 29.7422C72.3477 29.6484 72.5 29.5547 72.6406 29.4609C72.7812 29.3672 72.9453 29.2617 73.1328 29.1445C73.1797 29.0273 73.2266 28.9453 73.2734 28.8984C73.3438 28.8281 73.4141 28.7578 73.4844 28.6875C73.5781 28.3828 73.6133 28.1484 73.5898 27.9844C73.5664 27.8203 73.5781 27.6445 73.625 27.457C73.9062 27.2695 74.1055 27.1406 74.2227 27.0703C74.3633 27 74.5039 26.9883 74.6445 27.0352C74.7383 26.9883 74.832 26.9648 74.9258 26.9648C75.043 26.9414 75.125 26.9531 75.1719 27C75.4766 26.8594 75.793 26.8008 76.1211 26.8242C76.2148 26.8477 76.2852 26.8828 76.332 26.9297C76.4023 26.9766 76.4727 27.0234 76.543 27.0703C76.6602 27.1172 76.7773 27.1523 76.8945 27.1758C77.0352 27.1992 77.1523 27.2461 77.2461 27.3164C77.3867 27.457 77.4688 27.5625 77.4922 27.6328C77.6797 27.8906 77.7617 28.0664 77.7383 28.1602C77.7383 28.2305 77.7734 28.3008 77.8438 28.3711C77.7969 28.5586 77.7852 28.6992 77.8086 28.793C77.832 28.8867 77.832 29.0273 77.8086 29.2148C77.8086 29.5195 77.75 29.7539 77.6328 29.918C77.3984 30.1289 77.2578 30.2461 77.2109 30.2695C77.1641 30.293 77.1172 30.3281 77.0703 30.375C76.9297 30.5391 76.8125 30.6445 76.7188 30.6914C76.625 30.7148 76.543 30.7734 76.4727 30.8672C76.4023 30.9141 76.3438 30.9727 76.2969 31.043C76.2734 31.0898 76.2266 31.1367 76.1562 31.1836C76.1328 31.2539 76.0977 31.3242 76.0508 31.3945C76.0039 31.4414 75.957 31.5 75.9102 31.5703C75.9102 31.7109 75.875 31.8281 75.8047 31.9219C75.7344 32.0156 75.6406 32.0977 75.5234 32.168C75.4297 32.2383 75.3242 32.3203 75.207 32.4141C75.1133 32.4844 75.043 32.5898 74.9961 32.7305C74.8789 32.7305 74.7734 32.7891 74.6797 32.9062C74.6094 33 74.5156 33.0469 74.3984 33.0469C74.0234 33.2578 73.7539 33.4102 73.5898 33.5039C73.4258 33.5742 73.2383 33.6328 73.0273 33.6797C72.793 33.7734 72.6172 33.7969 72.5 33.75C72.3828 33.6797 72.2539 33.6445 72.1133 33.6445C71.9961 33.6211 71.8789 33.6328 71.7617 33.6797C71.6445 33.7031 71.5273 33.7148 71.4102 33.7148C71.082 33.6914 70.8711 33.6445 70.7773 33.5742C70.6836 33.5039 70.5781 33.4453 70.4609 33.3984C70.3203 33.3984 70.2266 33.3867 70.1797 33.3633C70.1562 33.3164 70.1211 33.293 70.0742 33.293C69.6992 33.2461 69.4531 33.1406 69.3359 32.9766C69.2188 32.8125 69.0664 32.6953 68.8789 32.625C68.6445 32.2969 68.3867 32.0039 68.1055 31.7461C67.8242 31.4648 67.6133 31.125 67.4727 30.7266C67.3789 30.6328 67.3086 30.5273 67.2617 30.4102C67.2148 30.293 67.168 30.1758 67.1211 30.0586C67.0508 29.9883 66.9805 29.8711 66.9102 29.707C66.8633 29.543 66.7812 29.3906 66.6641 29.25C66.5703 29.0859 66.5 28.9219 66.4531 28.7578C66.4297 28.6875 66.418 28.6172 66.418 28.5469C66.4414 28.4531 66.418 28.3828 66.3477 28.3359C66.3242 28.1719 66.3008 27.9844 66.2773 27.7734C66.2539 27.5625 66.2188 27.3867 66.1719 27.2461C66.1719 27.0586 66.1836 26.8711 66.207 26.6836C66.2305 26.4961 66.2305 26.2969 66.207 26.0859C66.207 25.875 66.1836 25.6641 66.1367 25.4531C66.0898 25.2422 66.0664 25.043 66.0664 24.8555C66.0664 24.7852 66.0781 24.7148 66.1016 24.6445C66.125 24.5742 66.1367 24.5156 66.1367 24.4688C66.1367 24.2344 66.1719 23.9766 66.2422 23.6953C66.3359 23.3906 66.4414 23.1094 66.5586 22.8516C66.5586 22.7578 66.5469 22.6641 66.5234 22.5703C66.5 22.4766 66.5117 22.3945 66.5586 22.3242C66.4414 22.1367 66.4297 21.9023 66.5234 21.6211C66.4766 21.4336 66.4531 21.2695 66.4531 21.1289C66.4766 20.9883 66.5 20.8242 66.5234 20.6367C66.4766 20.5664 66.4531 20.4258 66.4531 20.2148C66.4766 19.8164 66.5117 19.4062 66.5586 18.9844C66.6055 18.5391 66.6875 18.1523 66.8047 17.8242C66.8047 17.6836 66.8398 17.5664 66.9102 17.4727C67.0039 17.3555 67.0977 17.2148 67.1914 17.0508C67.2852 16.8633 67.3555 16.7461 67.4023 16.6992C67.4492 16.6523 67.4844 16.6055 67.5078 16.5586C67.5781 16.418 67.6367 16.3359 67.6836 16.3125C67.7305 16.2656 67.7539 16.207 67.7539 16.1367C68.1055 15.7148 68.4922 15.4102 68.9141 15.2227C69.1719 15.0586 69.3594 14.9648 69.4766 14.9414C69.5938 14.918 69.7109 14.8828 69.8281 14.8359C69.9219 14.7891 70.0391 14.7422 70.1797 14.6953C70.3438 14.6484 70.4844 14.6484 70.6016 14.6953C70.7422 14.625 70.918 14.5664 71.1289 14.5195C71.3398 14.4492 71.5273 14.4141 71.6914 14.4141C71.832 14.2969 71.9844 14.2383 72.1484 14.2383C72.3359 14.2383 72.5234 14.2617 72.7109 14.3086C72.9219 14.3789 73.0508 14.4141 73.0977 14.4141C73.1445 14.3906 73.1914 14.3789 73.2383 14.3789C73.4023 14.3789 73.5547 14.4141 73.6953 14.4844C73.9531 14.4844 74.2227 14.5195 74.5039 14.5898C74.7852 14.6602 75.0195 14.7539 75.207 14.8711C75.2539 14.9883 75.3359 15.082 75.4531 15.1523C75.5703 15.1992 75.6523 15.2812 75.6992 15.3984C75.8164 15.4453 75.9219 15.5156 76.0156 15.6094C76.1328 15.6797 76.2148 15.7852 76.2617 15.9258C76.5195 16.043 76.707 16.2305 76.8242 16.4883C76.9414 16.7227 77.0703 16.9336 77.2109 17.1211C77.1875 17.2383 77.1992 17.3438 77.2461 17.4375C77.293 17.5078 77.3164 17.6133 77.3164 17.7539C77.3867 17.8477 77.457 17.9297 77.5273 18C77.5977 18.0703 77.668 18.1523 77.7383 18.2461C77.7383 18.457 77.7617 18.6562 77.8086 18.8438C77.8789 19.0312 77.9141 19.2188 77.9141 19.4062C78.0078 19.7344 78.043 20.1211 78.0195 20.5664C78.0195 20.707 77.9961 20.8594 77.9492 21.0234C77.9023 21.1641 77.8789 21.3164 77.8789 21.4805C77.8555 21.668 77.8789 21.8555 77.9492 22.043C78.0195 22.207 78.0078 22.3828 77.9141 22.5703C77.9844 22.9688 77.9727 23.3086 77.8789 23.5898C77.7852 23.8477 77.7148 24.1289 77.668 24.4336C77.6211 24.5039 77.5859 24.5859 77.5625 24.6797C77.5625 24.7734 77.5156 24.8438 77.4219 24.8906C77.375 24.9609 77.3047 25.0195 77.2109 25.0664C77.1172 25.1133 77.0117 25.1602 76.8945 25.207C76.543 25.3945 76.2031 25.5117 75.875 25.5586C75.7344 25.6055 75.582 25.6289 75.418 25.6289C75.2539 25.6055 75.0781 25.582 74.8906 25.5586C74.5859 25.4883 74.3516 25.4766 74.1875 25.5234C74.0469 25.5703 73.9062 25.6055 73.7656 25.6289C73.6016 25.6758 73.4492 25.7109 73.3086 25.7344C73.168 25.7578 73.0039 25.7461 72.8164 25.6992C72.582 25.8164 72.3125 25.8398 72.0078 25.7695C71.7031 25.7695 71.4688 25.7578 71.3047 25.7344C71.1641 25.6875 71.0586 25.6289 70.9883 25.5586C70.7539 25.5117 70.4961 25.4766 70.2148 25.4531C69.957 25.4297 69.7344 25.418 69.5469 25.418C69.3594 25.5117 69.2539 25.6875 69.2305 25.9453C69.207 26.2031 69.1719 26.4609 69.125 26.7188C69.1016 26.8359 69.0781 26.9766 69.0547 27.1406C69.0547 27.2812 69.0781 27.4219 69.125 27.5625C69.2422 27.7969 69.3242 28.0664 69.3711 28.3711C69.418 28.6523 69.4883 28.9219 69.582 29.1797C69.6992 29.2734 69.7812 29.4141 69.8281 29.6016C70.0625 29.6719 70.2969 29.707 70.5312 29.707C70.7188 29.5898 70.9062 29.5781 71.0938 29.6719C71.2812 29.7656 71.4688 29.7539 71.6562 29.6367C71.7031 29.707 71.7852 29.7305 71.9023 29.707C72.0195 29.6836 72.1133 29.6953 72.1836 29.7422ZM74.6445 18.9141C74.4805 18.5859 74.3281 18.2695 74.1875 17.9648C74.0703 17.6602 73.8242 17.4727 73.4492 17.4023C73.2617 17.2617 73.1445 17.1914 73.0977 17.1914C72.9102 17.1445 72.7227 17.0977 72.5352 17.0508C72.3711 17.0039 72.1953 16.957 72.0078 16.9102C71.7266 16.8633 71.5508 16.8867 71.4805 16.9805C71.4102 17.0508 71.3047 17.0859 71.1641 17.0859C71.1172 17.1328 71.0703 17.1914 71.0234 17.2617C70.9766 17.332 70.8945 17.3672 70.7773 17.3672C70.5898 17.6016 70.4727 17.7891 70.4258 17.9297C70.4023 18.0703 70.3672 18.2109 70.3203 18.3516C70.3906 18.4219 70.4141 18.5156 70.3906 18.6328C70.3672 18.7266 70.3555 18.832 70.3555 18.9492C70.3789 19.0898 70.4141 19.2305 70.4609 19.3711C70.5312 19.5117 70.543 19.6523 70.4961 19.793C70.5664 19.8867 70.5898 20.0039 70.5664 20.1445C70.543 20.2852 70.5547 20.4141 70.6016 20.5312C70.4844 20.7891 70.4258 20.9414 70.4258 20.9883C70.4492 21.0117 70.4375 21.0234 70.3906 21.0234C70.4375 21.2344 70.3906 21.4219 70.25 21.5859C70.1328 21.7266 70.0508 21.9141 70.0039 22.1484C70.0039 22.2891 69.9922 22.418 69.9688 22.5352C69.9453 22.6289 69.9219 22.7461 69.8984 22.8867C70.0625 22.957 70.2266 23.0273 70.3906 23.0977C70.5781 23.1445 70.7305 23.2266 70.8477 23.3438C70.9648 23.3438 71.0586 23.3555 71.1289 23.3789C71.2227 23.3789 71.3047 23.3438 71.375 23.2734C71.6094 23.25 71.8555 23.25 72.1133 23.2734C72.3711 23.2969 72.6289 23.332 72.8867 23.3789C73.1445 23.4023 73.3906 23.4258 73.625 23.4492C73.8828 23.4492 74.1289 23.4258 74.3633 23.3789C74.5742 23.3789 74.7031 23.332 74.75 23.2383C74.7969 23.1211 74.8438 23.0156 74.8906 22.9219C75.0078 22.8047 75.0781 22.6758 75.1016 22.5352C75.125 22.1602 75.125 21.9375 75.1016 21.8672C75.1016 21.5156 75.1016 21.2695 75.1016 21.1289C75.125 20.9648 75.125 20.8242 75.1016 20.707C75.0781 20.1211 74.9492 19.582 74.7148 19.0898L74.6445 18.9141ZM73.4844 22.8516C73.3906 22.8047 73.3203 22.7461 73.2734 22.6758C73.25 22.582 73.2148 22.5117 73.168 22.4648C73.1445 22.3008 73.2266 22.1953 73.4141 22.1484C73.4609 22.0547 73.5195 21.9727 73.5898 21.9023C73.6602 21.832 73.7188 21.7383 73.7656 21.6211C73.9062 21.5977 74.0234 21.6328 74.1172 21.7266C74.2109 21.7969 74.3164 21.8438 74.4336 21.8672C74.6211 22.0781 74.6445 22.2891 74.5039 22.5C74.3633 22.6875 74.1875 22.8047 73.9766 22.8516C73.7891 22.7578 73.625 22.7578 73.4844 22.8516ZM78.3359 31.1133C78.4062 31.1602 78.4297 31.2188 78.4062 31.2891C78.3828 31.3594 78.3594 31.4414 78.3359 31.5352C78.3125 31.6758 78.3125 31.7812 78.3359 31.8516C78.3594 31.8984 78.3477 31.9688 78.3008 32.0625C78.2773 32.1094 78.2305 32.168 78.1602 32.2383C78.0898 32.3086 78.043 32.3672 78.0195 32.4141C77.832 32.6484 77.6914 32.7656 77.5977 32.7656C77.5273 32.7422 77.4688 32.7305 77.4219 32.7305C77.2344 32.8242 77.0234 32.8594 76.7891 32.8359C76.5547 32.7891 76.4492 32.6836 76.4727 32.5195C76.4727 32.4258 76.5195 32.3438 76.6133 32.2734C76.707 32.2031 76.7773 32.1328 76.8242 32.0625C76.8945 31.9688 76.9297 31.8867 76.9297 31.8164C76.9531 31.7227 76.9883 31.6406 77.0352 31.5703C77.3164 31.3125 77.5508 31.1836 77.7383 31.1836C77.9258 31.1602 78.125 31.1367 78.3359 31.1133ZM66.3477 32.3438C66.418 32.2969 66.4648 32.2383 66.4883 32.168C66.5117 32.0977 66.5469 32.0391 66.5938 31.9922C66.8047 31.9453 66.9219 31.9219 66.9453 31.9219C66.9922 31.9219 67.0391 31.8984 67.0859 31.8516C67.2031 31.8984 67.2969 31.957 67.3672 32.0273C67.4609 32.0742 67.5781 32.1094 67.7188 32.1328C67.9297 32.2734 67.9766 32.4492 67.8594 32.6602C67.7422 32.8711 67.6484 33.0586 67.5781 33.2227C67.1328 33.293 66.7109 33.2344 66.3125 33.0469C66.2656 32.9062 66.2656 32.7891 66.3125 32.6953C66.3594 32.5781 66.3711 32.4609 66.3477 32.3438ZM85.2617 14.8359C85.0273 14.7422 84.8984 14.6719 84.875 14.625C84.8516 14.5781 84.8164 14.5313 84.7695 14.4844C84.4414 14.0625 84.3594 13.7344 84.5234 13.5C84.875 13.3125 85.1328 13.2773 85.2969 13.3945C85.4609 13.5117 85.5664 13.6406 85.6133 13.7812C85.707 14.0391 85.6953 14.25 85.5781 14.4141C85.4844 14.5547 85.3789 14.6953 85.2617 14.8359ZM85.8594 15.6445C85.9297 15.5273 85.9766 15.4453 86 15.3984C86.0234 15.3516 86.082 15.3281 86.1758 15.3281C86.2461 15.1875 86.3867 15.1172 86.5977 15.1172C86.6445 15.0703 86.7148 15.0586 86.8086 15.082C86.9258 15.082 86.9961 15.1172 87.0195 15.1875C87.1602 15.2578 87.2891 15.375 87.4062 15.5391C87.5234 15.6797 87.5469 15.8672 87.4766 16.1016C87.3594 16.3359 87.2539 16.5117 87.1602 16.6289C87.0664 16.7461 86.9375 16.8516 86.7734 16.9453C86.7031 16.9219 86.6094 16.9102 86.4922 16.9102C86.3984 16.9102 86.3281 16.8984 86.2812 16.875C86.1875 16.6875 86.082 16.5117 85.9648 16.3477C85.8477 16.1602 85.8125 15.9258 85.8594 15.6445ZM80.7969 20.2148C80.4219 20.2852 80.1992 20.2617 80.1289 20.1445C80.0586 20.0039 79.9648 19.8984 79.8477 19.8281C79.8242 19.6406 79.8828 19.5 80.0234 19.4062C80.1641 19.2891 80.3164 19.2188 80.4805 19.1953C80.6445 19.1719 80.7969 19.1953 80.9375 19.2656C81.0781 19.3359 81.1484 19.4531 81.1484 19.6172C81.1484 19.7344 81.1133 19.8516 81.043 19.9688C80.9727 20.0625 80.8906 20.1445 80.7969 20.2148ZM96.3359 23.4844C96.3828 23.3906 96.4297 23.2969 96.4766 23.2031C96.5234 23.0859 96.6055 23.0039 96.7227 22.957C96.8633 22.8633 97.0625 22.8281 97.3203 22.8516C97.6016 22.875 97.8008 22.9453 97.918 23.0625C97.9648 23.1094 98.0117 23.1797 98.0586 23.2734C98.1289 23.3672 98.1758 23.4609 98.1992 23.5547C98.2461 23.7422 98.2695 23.8945 98.2695 24.0117C98.2461 24.1289 98.1523 24.2578 97.9883 24.3984C97.8242 24.5391 97.6836 24.6094 97.5664 24.6094C97.4492 24.6328 97.3203 24.6211 97.1797 24.5742C97.0625 24.5039 96.9805 24.4336 96.9336 24.3633C96.8867 24.293 96.8516 24.2227 96.8281 24.1523C96.8047 24.0586 96.7695 23.9883 96.7227 23.9414C96.6289 23.8477 96.5352 23.7773 96.4414 23.7305C96.3711 23.6836 96.3359 23.6016 96.3359 23.4844ZM97.9531 25.6641C97.8594 26.0391 97.6016 26.1562 97.1797 26.0156C97.1328 25.7109 97.1797 25.5117 97.3203 25.418C97.4844 25.3008 97.625 25.2656 97.7422 25.3125C97.7891 25.3594 97.8242 25.418 97.8477 25.4883C97.8711 25.5352 97.9062 25.5938 97.9531 25.6641ZM102.277 32.6953C102.23 32.5781 102.148 32.4609 102.031 32.3438C101.938 32.2031 101.891 32.0625 101.891 31.9219C101.914 31.8281 101.949 31.7695 101.996 31.7461C102.066 31.6992 102.113 31.6289 102.137 31.5352C102.254 31.4414 102.371 31.3945 102.488 31.3945C102.605 31.3945 102.723 31.3477 102.84 31.2539C103.145 31.3945 103.309 31.5234 103.332 31.6406C103.379 31.7578 103.426 31.8633 103.473 31.957C103.449 32.0273 103.438 32.1094 103.438 32.2031C103.461 32.2734 103.461 32.332 103.438 32.3789C103.367 32.6133 103.215 32.7305 102.98 32.7305C102.746 32.7305 102.512 32.7188 102.277 32.6953ZM84.0664 34.9453C84.1367 34.8984 84.1953 34.8516 84.2422 34.8047C84.3125 34.7344 84.3711 34.6406 84.418 34.5234C84.5352 34.4531 84.6523 34.3945 84.7695 34.3477C84.9102 34.2773 85.0391 34.1836 85.1562 34.0664C85.2266 33.9961 85.2969 33.9375 85.3672 33.8906C85.4609 33.8438 85.5664 33.8555 85.6836 33.9258C85.7773 34.043 85.8594 34.1836 85.9297 34.3477C86 34.4883 86.0117 34.6523 85.9648 34.8398C85.8711 35.0273 85.7305 35.1797 85.543 35.2969C85.3555 35.3906 85.1562 35.4844 84.9453 35.5781C84.875 35.6953 84.7578 35.7539 84.5938 35.7539C84.4531 35.7539 84.3242 35.7305 84.207 35.6836C84.1367 35.5898 84.0898 35.4727 84.0664 35.332C84.0664 35.1914 84.0664 35.0625 84.0664 34.9453ZM84.875 19.1953C84.875 19.3125 84.8633 19.4531 84.8398 19.6172C84.8164 19.7812 84.793 19.9336 84.7695 20.0742C84.7461 20.1211 84.7227 20.2383 84.6992 20.4258C84.6992 20.5898 84.7227 20.6836 84.7695 20.707C84.9102 20.6133 85.0391 20.4141 85.1562 20.1094C85.2266 19.9219 85.2852 19.7578 85.332 19.6172C85.4023 19.4531 85.5195 19.3125 85.6836 19.1953C85.7773 19.0547 85.8828 18.9141 86 18.7734C86.1406 18.6328 86.2695 18.4922 86.3867 18.3516C86.5273 18.3047 86.6562 18.2461 86.7734 18.1758C86.8906 18.082 87.043 18.0234 87.2305 18C87.4883 17.8594 87.6758 17.7539 87.793 17.6836C87.9336 17.6133 88.0742 17.543 88.2148 17.4727C88.543 17.4258 88.8711 17.4375 89.1992 17.5078C89.5273 17.5781 89.8203 17.6719 90.0781 17.7891H90.7109C90.9688 17.8828 91.1445 17.9648 91.2383 18.0352C91.4492 18.082 91.625 18.1055 91.7656 18.1055C91.9062 18.1055 92.0469 18.1523 92.1875 18.2461C92.2578 18.293 92.293 18.3516 92.293 18.4219C92.3164 18.4922 92.3516 18.5742 92.3984 18.668C92.4453 18.7852 92.4805 18.8672 92.5039 18.9141C92.5508 18.9609 92.5742 19.0195 92.5742 19.0898C92.5977 19.1367 92.6211 19.207 92.6445 19.3008C92.668 19.3711 92.6914 19.4297 92.7148 19.4766C92.7617 19.6406 92.8203 19.7812 92.8906 19.8984C92.9609 20.0156 93.0547 20.0859 93.1719 20.1094C93.2188 20.1094 93.2773 20.0977 93.3477 20.0742C93.418 20.0273 93.5 19.9922 93.5938 19.9688C93.8281 19.7344 94.0742 19.5352 94.332 19.3711C94.5898 19.1836 94.8477 18.9609 95.1055 18.7031C95.3633 18.4922 95.5273 18.3984 95.5977 18.4219C95.6914 18.4219 95.75 18.3633 95.7734 18.2461C96.0078 18.1992 96.2305 18.1289 96.4414 18.0352C96.6523 17.9414 96.8633 17.8594 97.0742 17.7891C97.1914 17.8359 97.2852 17.8477 97.3555 17.8242C97.4258 17.8008 97.5195 17.8125 97.6367 17.8594C97.9883 17.8828 98.3164 17.8477 98.6211 17.7539C98.9492 17.6602 99.207 17.7188 99.3945 17.9297C99.4648 17.9297 99.5352 17.9531 99.6055 18C99.6758 18.0234 99.7578 18.0352 99.8516 18.0352C99.9219 18.082 99.9922 18.1172 100.062 18.1406C100.156 18.1406 100.215 18.1758 100.238 18.2461C100.473 18.3164 100.672 18.3867 100.836 18.457C101.023 18.5273 101.199 18.6094 101.363 18.7031C101.527 18.7734 101.668 18.8789 101.785 19.0195C101.902 19.1602 101.961 19.3477 101.961 19.582C102.008 19.6758 102.043 19.7812 102.066 19.8984C102.113 20.0156 102.16 20.1211 102.207 20.2148C102.301 20.543 102.395 20.8125 102.488 21.0234C102.582 21.2109 102.582 21.4336 102.488 21.6914C102.535 22.043 102.594 22.3594 102.664 22.6406C102.734 22.8984 102.723 23.1914 102.629 23.5195C102.488 23.9414 102.383 24.3047 102.312 24.6094C102.266 24.9141 102.184 25.1953 102.066 25.4531C101.926 25.6641 101.855 25.8984 101.855 26.1562C101.855 26.4141 101.832 26.6836 101.785 26.9648C101.762 27.0586 101.727 27.1406 101.68 27.2109C101.656 27.2578 101.621 27.3281 101.574 27.4219C101.527 27.5391 101.504 27.6797 101.504 27.8438C101.504 28.0078 101.48 28.1484 101.434 28.2656C101.387 28.4531 101.328 28.6523 101.258 28.8633C101.188 29.0508 101.176 29.25 101.223 29.4609C101.246 29.6016 101.27 29.7188 101.293 29.8125C101.34 29.8828 101.352 29.9766 101.328 30.0938C101.328 30.2109 101.305 30.3398 101.258 30.4805C101.211 30.6211 101.223 30.7852 101.293 30.9727C101.199 31.1367 101.152 31.3477 101.152 31.6055C101.176 31.8398 101.141 32.0391 101.047 32.2031C101.094 32.4609 101.141 32.6367 101.188 32.7305C101.258 32.8008 101.316 32.8828 101.363 32.9766C101.363 33.2812 101.445 33.5742 101.609 33.8555C101.844 33.8555 102.055 33.8086 102.242 33.7148C102.312 33.7148 102.371 33.75 102.418 33.8203C102.488 33.8672 102.559 33.8672 102.629 33.8203C102.723 33.8906 102.816 33.9141 102.91 33.8906C103.004 33.8672 103.086 33.832 103.156 33.7852C103.227 33.7383 103.297 33.6914 103.367 33.6445C103.461 33.5742 103.555 33.5508 103.648 33.5742C103.859 33.7148 104.012 33.8438 104.105 33.9609C104.199 34.0547 104.281 34.1602 104.352 34.2773C104.516 34.582 104.574 34.793 104.527 34.9102C104.504 35.0273 104.516 35.1562 104.562 35.2969C104.516 35.4609 104.492 35.6484 104.492 35.8594C104.492 36.0469 104.434 36.2109 104.316 36.3516C104.105 36.4922 103.93 36.6562 103.789 36.8438C103.719 36.9141 103.59 36.9961 103.402 37.0898C103.215 37.1836 103.027 37.2539 102.84 37.3008C102.676 37.3711 102.5 37.4414 102.312 37.5117C102.219 37.5586 102.102 37.6055 101.961 37.6523C101.82 37.6992 101.668 37.6992 101.504 37.6523C101.293 37.5117 101.188 37.4297 101.188 37.4062C101.211 37.4062 101.211 37.3945 101.188 37.3711C100.953 37.2539 100.801 37.1836 100.73 37.1602C100.684 37.1367 100.648 37.0898 100.625 37.0195C100.508 37.043 100.367 37.043 100.203 37.0195C100.062 36.9961 99.9688 36.9258 99.9219 36.8086C99.6641 36.7617 99.418 36.6914 99.1836 36.5977C98.9492 36.5039 98.7734 36.3516 98.6562 36.1406C98.5625 35.9531 98.5039 35.7305 98.4805 35.4727C98.4805 35.2148 98.4336 34.9805 98.3398 34.7695C98.2461 34.6055 98.1406 34.4297 98.0234 34.2422C97.9062 34.0547 97.8359 33.8438 97.8125 33.6094C97.7891 33.3984 97.7656 33.2344 97.7422 33.1172C97.7422 32.9766 97.7891 32.8594 97.8828 32.7656C97.9062 32.5781 97.918 32.3906 97.918 32.2031C97.9414 32.0156 98 31.8281 98.0938 31.6406C98.1875 31.3594 98.2109 31.1484 98.1641 31.0078C98.1406 30.8438 98.1406 30.6797 98.1641 30.5156C98.1875 30.3281 98.2109 30.1406 98.2344 29.9531C98.2578 29.7656 98.293 29.5898 98.3398 29.4258C98.3633 29.3555 98.375 29.2734 98.375 29.1797C98.375 29.0859 98.3984 29.0039 98.4453 28.9336C98.4219 28.7461 98.4336 28.5352 98.4805 28.3008C98.5273 28.0664 98.5742 27.832 98.6211 27.5977C98.5508 27.1523 98.5977 26.6953 98.7617 26.2266C98.7617 26.0859 98.7617 25.9805 98.7617 25.9102C98.7852 25.8164 98.8086 25.7227 98.832 25.6289C98.8789 25.4414 98.9258 25.2656 98.9727 25.1016C99.0195 24.9141 99.0664 24.7266 99.1133 24.5391C99.1367 24.4219 99.1367 24.3164 99.1133 24.2227C99.0898 24.1055 99.0781 23.9883 99.0781 23.8711C99.0547 23.7539 99.0547 23.6367 99.0781 23.5195C99.1016 23.4023 99.1133 23.2852 99.1133 23.168C99.0898 23.0977 99.0547 23.0391 99.0078 22.9922C98.9844 22.9219 98.9844 22.8516 99.0078 22.7812C98.9375 22.6875 98.8906 22.5938 98.8672 22.5C98.8672 22.3828 98.8438 22.2656 98.7969 22.1484C98.75 22.0312 98.668 21.9609 98.5508 21.9375C98.457 21.9141 98.375 21.8672 98.3047 21.7969C98.1406 21.7266 97.9766 21.7148 97.8125 21.7617C97.6484 21.7852 97.4727 21.7734 97.2852 21.7266C97.0039 21.8203 96.7578 21.8438 96.5469 21.7969C96.3594 21.75 96.207 21.7734 96.0898 21.8672C95.6914 22.0078 95.3164 22.1133 94.9648 22.1836C94.7539 22.3242 94.6016 22.5117 94.5078 22.7461C94.4141 22.957 94.3438 23.2266 94.2969 23.5547C94.2031 23.9062 94.1328 24.1992 94.0859 24.4336C94.0625 24.668 94.0625 24.9023 94.0859 25.1367C94.0859 25.2773 94.0508 25.4062 93.9805 25.5234C93.9102 25.6406 93.8633 25.7695 93.8398 25.9102C93.6758 26.1211 93.5938 26.3555 93.5938 26.6133C93.6172 26.6836 93.6406 26.7539 93.6641 26.8242C93.6875 26.8711 93.6992 26.9297 93.6992 27C93.7227 27.0938 93.7227 27.1875 93.6992 27.2812C93.6758 27.3516 93.6641 27.4336 93.6641 27.5273C93.6641 27.832 93.6641 28.125 93.6641 28.4062C93.6875 28.6875 93.7344 28.9453 93.8047 29.1797C93.8281 29.2969 93.8516 29.4375 93.875 29.6016C93.9219 29.7422 93.9453 29.8828 93.9453 30.0234C94.0625 30.1406 94.168 30.293 94.2617 30.4805C94.3555 30.6445 94.4727 30.8086 94.6133 30.9727C94.7305 31.1133 94.8477 31.2305 94.9648 31.3242C95.082 31.3945 95.1523 31.5469 95.1758 31.7812C95.1758 31.9688 95.1758 32.168 95.1758 32.3789C95.1758 32.5898 95.1641 32.7891 95.1406 32.9766C95.1172 33.1406 95.0586 33.2812 94.9648 33.3984C94.8945 33.5156 94.8359 33.6562 94.7891 33.8203C94.7422 33.9141 94.6719 33.9961 94.5781 34.0664C94.4844 34.1133 94.3906 34.1836 94.2969 34.2773C93.9688 34.5117 93.7227 34.6641 93.5586 34.7344C93.418 34.7812 93.2539 34.7812 93.0664 34.7344C92.9961 34.7812 92.9141 34.8047 92.8203 34.8047C92.7266 34.7812 92.6562 34.793 92.6094 34.8398C92.4688 34.8633 92.3398 34.8516 92.2227 34.8047C92.1289 34.7344 92 34.6758 91.8359 34.6289C91.7422 34.6055 91.6484 34.6055 91.5547 34.6289C91.4609 34.6289 91.3789 34.6172 91.3086 34.5938C91.0742 34.4062 90.8984 34.2891 90.7812 34.2422C90.6641 34.1953 90.5703 34.125 90.5 34.0312C90.4531 33.9375 90.3828 33.8672 90.2891 33.8203C90.1953 33.75 90.1367 33.6562 90.1133 33.5391C90.207 33.1406 90.2188 32.8594 90.1484 32.6953C90.0781 32.5078 90.0781 32.3203 90.1484 32.1328C90.0312 31.9453 90.043 31.7461 90.1836 31.5352C90.1367 31.418 90.1367 31.3359 90.1836 31.2891C90.2305 31.2188 90.2773 31.125 90.3242 31.0078C90.3477 30.9375 90.3594 30.8555 90.3594 30.7617C90.3594 30.668 90.3711 30.5977 90.3945 30.5508C90.4414 30.3633 90.4648 30.1992 90.4648 30.0586C90.4883 29.8945 90.5586 29.7305 90.6758 29.5664C90.6523 29.3789 90.6406 29.2031 90.6406 29.0391C90.6406 28.8516 90.6406 28.6641 90.6406 28.4766C90.7109 28.125 90.7344 27.8789 90.7109 27.7383C90.7109 27.5977 90.7109 27.4688 90.7109 27.3516C90.7578 27.0938 90.7695 26.8242 90.7461 26.543C90.7227 26.2383 90.7695 25.957 90.8867 25.6992C90.8867 25.582 90.8867 25.4531 90.8867 25.3125C90.8867 25.1719 90.9102 25.0547 90.957 24.9609C90.9102 24.4453 90.9453 23.9297 91.0625 23.4141C91.1797 23.1094 91.2148 22.8398 91.168 22.6055C91.1445 22.3711 91.0625 22.1836 90.9219 22.043C90.7812 21.8789 90.5938 21.7852 90.3594 21.7617C90.125 21.7148 89.9609 21.5859 89.8672 21.375C89.5156 21.2812 89.2578 21.2578 89.0938 21.3047C88.9297 21.3516 88.8008 21.3398 88.707 21.2695C88.2617 21.4805 87.9102 21.7383 87.6523 22.043C87.418 22.3477 87.207 22.6641 87.0195 22.9922C86.8086 23.3203 86.6094 23.5781 86.4219 23.7656C86.375 23.8828 86.3164 24.0117 86.2461 24.1523C86.1992 24.293 86.1523 24.4336 86.1055 24.5742C86.1289 24.6914 86.1289 24.8203 86.1055 24.9609C86.082 25.0781 86.0352 25.1602 85.9648 25.207C85.9648 25.3945 85.9414 25.582 85.8945 25.7695C85.8711 25.8633 85.8477 25.9336 85.8242 25.9805C85.8008 26.0273 85.7656 26.0859 85.7188 26.1562C85.6953 26.4375 85.6602 26.625 85.6133 26.7188C85.5898 26.7891 85.5547 26.8828 85.5078 27C85.4609 27.1641 85.4023 27.3281 85.332 27.4922C85.2852 27.6328 85.2383 27.7969 85.1914 27.9844C85.1914 28.1016 85.168 28.2188 85.1211 28.3359C85.0742 28.4297 85.0391 28.5352 85.0156 28.6523C84.9688 28.8164 84.957 28.9922 84.9805 29.1797C85.0273 29.3438 84.9922 29.4844 84.875 29.6016C84.875 29.7656 84.8516 29.8945 84.8047 29.9883C84.7812 30.082 84.793 30.1875 84.8398 30.3047C84.8633 30.3984 84.9102 30.4922 84.9805 30.5859C85.0508 30.6562 85.1094 30.75 85.1562 30.8672C85.2969 31.1016 85.4023 31.2891 85.4727 31.4297C85.5664 31.5469 85.5781 31.6875 85.5078 31.8516C85.5078 32.3438 85.3906 32.707 85.1562 32.9414C84.9219 33.1523 84.6875 33.3867 84.4531 33.6445C84.2422 33.8086 84.043 33.9375 83.8555 34.0312C83.6914 34.125 83.5391 34.2539 83.3984 34.418C83.0938 34.6523 82.8594 34.793 82.6953 34.8398C82.5547 34.8867 82.4141 34.8867 82.2734 34.8398C82.0391 34.7227 81.9219 34.6641 81.9219 34.6641C81.8984 34.6641 81.8398 34.6289 81.7461 34.5586C81.6758 34.4648 81.6289 34.3945 81.6055 34.3477C81.3711 34.0898 81.2188 33.8789 81.1484 33.7148C81.1016 33.5508 81.0195 33.4336 80.9023 33.3633C80.8555 33.0352 80.8203 32.8008 80.7969 32.6602C80.7969 32.4961 80.7852 32.3438 80.7617 32.2031C80.7852 31.9922 80.7969 31.8047 80.7969 31.6406C80.7969 31.4766 80.8555 31.3477 80.9727 31.2539C80.9727 31.1367 80.9844 31.0195 81.0078 30.9023C81.0312 30.7617 81.0781 30.6562 81.1484 30.5859C81.1719 30.3516 81.2188 30.1523 81.2891 29.9883C81.3594 29.8008 81.418 29.6367 81.4648 29.4961C81.5586 29.4727 81.5938 29.4141 81.5703 29.3203C81.5703 29.2266 81.6289 29.168 81.7461 29.1445C81.7461 29.0742 81.7578 29.0039 81.7812 28.9336C81.8281 28.8398 81.8516 28.7344 81.8516 28.6172C81.8281 28.2891 81.8281 28.0664 81.8516 27.9492C81.875 27.832 81.8867 27.7031 81.8867 27.5625C81.9102 27.3047 81.9102 27.1406 81.8867 27.0703C81.8867 27 81.8867 26.9414 81.8867 26.8945C81.9102 26.8242 81.9336 26.7539 81.957 26.6836C81.9805 26.6133 81.9922 26.543 81.9922 26.4727C82.0156 26.4023 82.0156 26.332 81.9922 26.2617C81.9922 26.1914 82.0156 26.1328 82.0625 26.0859C81.9922 25.6875 81.9219 25.3242 81.8516 24.9961C81.7812 24.6445 81.793 24.3047 81.8867 23.9766C81.8164 23.7656 81.793 23.5664 81.8164 23.3789C81.8398 23.2617 81.8633 23.168 81.8867 23.0977C81.9336 23.0273 81.957 22.957 81.957 22.8867C81.8867 22.5117 81.8633 22.2188 81.8867 22.0078C81.9336 21.7734 81.9805 21.5859 82.0273 21.4453C82.0273 21.3516 82.0156 21.2695 81.9922 21.1992C81.9688 21.1289 81.9805 21.0703 82.0273 21.0234C82.0508 20.7188 82.0156 20.4258 81.9219 20.1445C81.8516 19.8633 81.8398 19.6523 81.8867 19.5117C81.7695 19.2539 81.6992 19.0664 81.6758 18.9492C81.6758 18.832 81.6641 18.7148 81.6406 18.5977C81.5234 18.5508 81.4531 18.4688 81.4297 18.3516C81.4297 18.2344 81.4062 18.1406 81.3594 18.0703C81.4062 17.9766 81.4062 17.8945 81.3594 17.8242C81.3125 17.7305 81.3125 17.6484 81.3594 17.5781C81.1953 17.1797 81.1367 16.875 81.1836 16.6641C81.2305 16.4531 81.3008 16.2539 81.3945 16.0664C81.4414 16.0195 81.4883 15.9492 81.5352 15.8555C81.6055 15.7617 81.6875 15.7383 81.7812 15.7852C81.8984 15.6211 82.0039 15.5039 82.0977 15.4336C82.2148 15.3398 82.3555 15.293 82.5195 15.293C82.6133 15.1992 82.7188 15.1641 82.8359 15.1875C82.9766 15.1875 83.1055 15.1641 83.2227 15.1172C83.457 15.1406 83.6328 15.1992 83.75 15.293C83.8672 15.3633 83.9609 15.457 84.0312 15.5742C84.125 15.668 84.207 15.7734 84.2773 15.8906C84.3711 15.9844 84.4766 16.0664 84.5938 16.1367C84.6641 16.3008 84.7578 16.4648 84.875 16.6289C85.0156 16.7695 85.0508 16.957 84.9805 17.1914C85.1211 17.7539 85.1211 18.3398 84.9805 18.9492L84.875 19.1953ZM108.289 12.832C108.266 12.9727 108.289 13.0781 108.359 13.1484C108.43 13.2188 108.453 13.3242 108.43 13.4648C108.172 13.5586 108.031 13.6055 108.008 13.6055C108.008 13.6055 107.996 13.6172 107.973 13.6406C107.738 13.6172 107.586 13.6055 107.516 13.6055C107.445 13.6055 107.387 13.5469 107.34 13.4297C107.48 13.1719 107.621 12.9844 107.762 12.8672C107.926 12.75 108.102 12.7383 108.289 12.832ZM106.777 13.8867C106.895 13.9336 106.977 14.0039 107.023 14.0977C107.07 14.1914 107.117 14.2969 107.164 14.4141C107.188 14.7187 107.094 14.9297 106.883 15.0469C106.695 15.1641 106.508 15.3164 106.32 15.5039C106.25 15.4805 106.18 15.4805 106.109 15.5039C106.062 15.5273 105.98 15.5273 105.863 15.5039C105.793 15.4336 105.723 15.3164 105.652 15.1523C105.676 14.8477 105.699 14.625 105.723 14.4844C105.746 14.3438 105.781 14.2148 105.828 14.0977C106.086 13.9805 106.273 13.9219 106.391 13.9219C106.531 13.8984 106.66 13.8867 106.777 13.8867ZM111.594 29.7422C111.758 29.6484 111.91 29.5547 112.051 29.4609C112.191 29.3672 112.355 29.2617 112.543 29.1445C112.59 29.0273 112.637 28.9453 112.684 28.8984C112.754 28.8281 112.824 28.7578 112.895 28.6875C112.988 28.3828 113.023 28.1484 113 27.9844C112.977 27.8203 112.988 27.6445 113.035 27.457C113.316 27.2695 113.516 27.1406 113.633 27.0703C113.773 27 113.914 26.9883 114.055 27.0352C114.148 26.9883 114.242 26.9648 114.336 26.9648C114.453 26.9414 114.535 26.9531 114.582 27C114.887 26.8594 115.203 26.8008 115.531 26.8242C115.625 26.8477 115.695 26.8828 115.742 26.9297C115.812 26.9766 115.883 27.0234 115.953 27.0703C116.07 27.1172 116.188 27.1523 116.305 27.1758C116.445 27.1992 116.562 27.2461 116.656 27.3164C116.797 27.457 116.879 27.5625 116.902 27.6328C117.09 27.8906 117.172 28.0664 117.148 28.1602C117.148 28.2305 117.184 28.3008 117.254 28.3711C117.207 28.5586 117.195 28.6992 117.219 28.793C117.242 28.8867 117.242 29.0273 117.219 29.2148C117.219 29.5195 117.16 29.7539 117.043 29.918C116.809 30.1289 116.668 30.2461 116.621 30.2695C116.574 30.293 116.527 30.3281 116.48 30.375C116.34 30.5391 116.223 30.6445 116.129 30.6914C116.035 30.7148 115.953 30.7734 115.883 30.8672C115.812 30.9141 115.754 30.9727 115.707 31.043C115.684 31.0898 115.637 31.1367 115.566 31.1836C115.543 31.2539 115.508 31.3242 115.461 31.3945C115.414 31.4414 115.367 31.5 115.32 31.5703C115.32 31.7109 115.285 31.8281 115.215 31.9219C115.145 32.0156 115.051 32.0977 114.934 32.168C114.84 32.2383 114.734 32.3203 114.617 32.4141C114.523 32.4844 114.453 32.5898 114.406 32.7305C114.289 32.7305 114.184 32.7891 114.09 32.9062C114.02 33 113.926 33.0469 113.809 33.0469C113.434 33.2578 113.164 33.4102 113 33.5039C112.836 33.5742 112.648 33.6328 112.438 33.6797C112.203 33.7734 112.027 33.7969 111.91 33.75C111.793 33.6797 111.664 33.6445 111.523 33.6445C111.406 33.6211 111.289 33.6328 111.172 33.6797C111.055 33.7031 110.938 33.7148 110.82 33.7148C110.492 33.6914 110.281 33.6445 110.188 33.5742C110.094 33.5039 109.988 33.4453 109.871 33.3984C109.73 33.3984 109.637 33.3867 109.59 33.3633C109.566 33.3164 109.531 33.293 109.484 33.293C109.109 33.2461 108.863 33.1406 108.746 32.9766C108.629 32.8125 108.477 32.6953 108.289 32.625C108.055 32.2969 107.797 32.0039 107.516 31.7461C107.234 31.4648 107.023 31.125 106.883 30.7266C106.789 30.6328 106.719 30.5273 106.672 30.4102C106.625 30.293 106.578 30.1758 106.531 30.0586C106.461 29.9883 106.391 29.8711 106.32 29.707C106.273 29.543 106.191 29.3906 106.074 29.25C105.98 29.0859 105.91 28.9219 105.863 28.7578C105.84 28.6875 105.828 28.6172 105.828 28.5469C105.852 28.4531 105.828 28.3828 105.758 28.3359C105.734 28.1719 105.711 27.9844 105.688 27.7734C105.664 27.5625 105.629 27.3867 105.582 27.2461C105.582 27.0586 105.594 26.8711 105.617 26.6836C105.641 26.4961 105.641 26.2969 105.617 26.0859C105.617 25.875 105.594 25.6641 105.547 25.4531C105.5 25.2422 105.477 25.043 105.477 24.8555C105.477 24.7852 105.488 24.7148 105.512 24.6445C105.535 24.5742 105.547 24.5156 105.547 24.4688C105.547 24.2344 105.582 23.9766 105.652 23.6953C105.746 23.3906 105.852 23.1094 105.969 22.8516C105.969 22.7578 105.957 22.6641 105.934 22.5703C105.91 22.4766 105.922 22.3945 105.969 22.3242C105.852 22.1367 105.84 21.9023 105.934 21.6211C105.887 21.4336 105.863 21.2695 105.863 21.1289C105.887 20.9883 105.91 20.8242 105.934 20.6367C105.887 20.5664 105.863 20.4258 105.863 20.2148C105.887 19.8164 105.922 19.4062 105.969 18.9844C106.016 18.5391 106.098 18.1523 106.215 17.8242C106.215 17.6836 106.25 17.5664 106.32 17.4727C106.414 17.3555 106.508 17.2148 106.602 17.0508C106.695 16.8633 106.766 16.7461 106.812 16.6992C106.859 16.6523 106.895 16.6055 106.918 16.5586C106.988 16.418 107.047 16.3359 107.094 16.3125C107.141 16.2656 107.164 16.207 107.164 16.1367C107.516 15.7148 107.902 15.4102 108.324 15.2227C108.582 15.0586 108.77 14.9648 108.887 14.9414C109.004 14.918 109.121 14.8828 109.238 14.8359C109.332 14.7891 109.449 14.7422 109.59 14.6953C109.754 14.6484 109.895 14.6484 110.012 14.6953C110.152 14.625 110.328 14.5664 110.539 14.5195C110.75 14.4492 110.938 14.4141 111.102 14.4141C111.242 14.2969 111.395 14.2383 111.559 14.2383C111.746 14.2383 111.934 14.2617 112.121 14.3086C112.332 14.3789 112.461 14.4141 112.508 14.4141C112.555 14.3906 112.602 14.3789 112.648 14.3789C112.812 14.3789 112.965 14.4141 113.105 14.4844C113.363 14.4844 113.633 14.5195 113.914 14.5898C114.195 14.6602 114.43 14.7539 114.617 14.8711C114.664 14.9883 114.746 15.082 114.863 15.1523C114.98 15.1992 115.062 15.2812 115.109 15.3984C115.227 15.4453 115.332 15.5156 115.426 15.6094C115.543 15.6797 115.625 15.7852 115.672 15.9258C115.93 16.043 116.117 16.2305 116.234 16.4883C116.352 16.7227 116.48 16.9336 116.621 17.1211C116.598 17.2383 116.609 17.3438 116.656 17.4375C116.703 17.5078 116.727 17.6133 116.727 17.7539C116.797 17.8477 116.867 17.9297 116.938 18C117.008 18.0703 117.078 18.1523 117.148 18.2461C117.148 18.457 117.172 18.6562 117.219 18.8438C117.289 19.0312 117.324 19.2188 117.324 19.4062C117.418 19.7344 117.453 20.1211 117.43 20.5664C117.43 20.707 117.406 20.8594 117.359 21.0234C117.312 21.1641 117.289 21.3164 117.289 21.4805C117.266 21.668 117.289 21.8555 117.359 22.043C117.43 22.207 117.418 22.3828 117.324 22.5703C117.395 22.9688 117.383 23.3086 117.289 23.5898C117.195 23.8477 117.125 24.1289 117.078 24.4336C117.031 24.5039 116.996 24.5859 116.973 24.6797C116.973 24.7734 116.926 24.8438 116.832 24.8906C116.785 24.9609 116.715 25.0195 116.621 25.0664C116.527 25.1133 116.422 25.1602 116.305 25.207C115.953 25.3945 115.613 25.5117 115.285 25.5586C115.145 25.6055 114.992 25.6289 114.828 25.6289C114.664 25.6055 114.488 25.582 114.301 25.5586C113.996 25.4883 113.762 25.4766 113.598 25.5234C113.457 25.5703 113.316 25.6055 113.176 25.6289C113.012 25.6758 112.859 25.7109 112.719 25.7344C112.578 25.7578 112.414 25.7461 112.227 25.6992C111.992 25.8164 111.723 25.8398 111.418 25.7695C111.113 25.7695 110.879 25.7578 110.715 25.7344C110.574 25.6875 110.469 25.6289 110.398 25.5586C110.164 25.5117 109.906 25.4766 109.625 25.4531C109.367 25.4297 109.145 25.418 108.957 25.418C108.77 25.5117 108.664 25.6875 108.641 25.9453C108.617 26.2031 108.582 26.4609 108.535 26.7188C108.512 26.8359 108.488 26.9766 108.465 27.1406C108.465 27.2812 108.488 27.4219 108.535 27.5625C108.652 27.7969 108.734 28.0664 108.781 28.3711C108.828 28.6523 108.898 28.9219 108.992 29.1797C109.109 29.2734 109.191 29.4141 109.238 29.6016C109.473 29.6719 109.707 29.707 109.941 29.707C110.129 29.5898 110.316 29.5781 110.504 29.6719C110.691 29.7656 110.879 29.7539 111.066 29.6367C111.113 29.707 111.195 29.7305 111.312 29.707C111.43 29.6836 111.523 29.6953 111.594 29.7422ZM114.055 18.9141C113.891 18.5859 113.738 18.2695 113.598 17.9648C113.48 17.6602 113.234 17.4727 112.859 17.4023C112.672 17.2617 112.555 17.1914 112.508 17.1914C112.32 17.1445 112.133 17.0977 111.945 17.0508C111.781 17.0039 111.605 16.957 111.418 16.9102C111.137 16.8633 110.961 16.8867 110.891 16.9805C110.82 17.0508 110.715 17.0859 110.574 17.0859C110.527 17.1328 110.48 17.1914 110.434 17.2617C110.387 17.332 110.305 17.3672 110.188 17.3672C110 17.6016 109.883 17.7891 109.836 17.9297C109.812 18.0703 109.777 18.2109 109.73 18.3516C109.801 18.4219 109.824 18.5156 109.801 18.6328C109.777 18.7266 109.766 18.832 109.766 18.9492C109.789 19.0898 109.824 19.2305 109.871 19.3711C109.941 19.5117 109.953 19.6523 109.906 19.793C109.977 19.8867 110 20.0039 109.977 20.1445C109.953 20.2852 109.965 20.4141 110.012 20.5312C109.895 20.7891 109.836 20.9414 109.836 20.9883C109.859 21.0117 109.848 21.0234 109.801 21.0234C109.848 21.2344 109.801 21.4219 109.66 21.5859C109.543 21.7266 109.461 21.9141 109.414 22.1484C109.414 22.2891 109.402 22.418 109.379 22.5352C109.355 22.6289 109.332 22.7461 109.309 22.8867C109.473 22.957 109.637 23.0273 109.801 23.0977C109.988 23.1445 110.141 23.2266 110.258 23.3438C110.375 23.3438 110.469 23.3555 110.539 23.3789C110.633 23.3789 110.715 23.3438 110.785 23.2734C111.02 23.25 111.266 23.25 111.523 23.2734C111.781 23.2969 112.039 23.332 112.297 23.3789C112.555 23.4023 112.801 23.4258 113.035 23.4492C113.293 23.4492 113.539 23.4258 113.773 23.3789C113.984 23.3789 114.113 23.332 114.16 23.2383C114.207 23.1211 114.254 23.0156 114.301 22.9219C114.418 22.8047 114.488 22.6758 114.512 22.5352C114.535 22.1602 114.535 21.9375 114.512 21.8672C114.512 21.5156 114.512 21.2695 114.512 21.1289C114.535 20.9648 114.535 20.8242 114.512 20.707C114.488 20.1211 114.359 19.582 114.125 19.0898L114.055 18.9141ZM112.895 22.8516C112.801 22.8047 112.73 22.7461 112.684 22.6758C112.66 22.582 112.625 22.5117 112.578 22.4648C112.555 22.3008 112.637 22.1953 112.824 22.1484C112.871 22.0547 112.93 21.9727 113 21.9023C113.07 21.832 113.129 21.7383 113.176 21.6211C113.316 21.5977 113.434 21.6328 113.527 21.7266C113.621 21.7969 113.727 21.8438 113.844 21.8672C114.031 22.0781 114.055 22.2891 113.914 22.5C113.773 22.6875 113.598 22.8047 113.387 22.8516C113.199 22.7578 113.035 22.7578 112.895 22.8516ZM117.746 31.1133C117.816 31.1602 117.84 31.2188 117.816 31.2891C117.793 31.3594 117.77 31.4414 117.746 31.5352C117.723 31.6758 117.723 31.7812 117.746 31.8516C117.77 31.8984 117.758 31.9688 117.711 32.0625C117.688 32.1094 117.641 32.168 117.57 32.2383C117.5 32.3086 117.453 32.3672 117.43 32.4141C117.242 32.6484 117.102 32.7656 117.008 32.7656C116.938 32.7422 116.879 32.7305 116.832 32.7305C116.645 32.8242 116.434 32.8594 116.199 32.8359C115.965 32.7891 115.859 32.6836 115.883 32.5195C115.883 32.4258 115.93 32.3438 116.023 32.2734C116.117 32.2031 116.188 32.1328 116.234 32.0625C116.305 31.9688 116.34 31.8867 116.34 31.8164C116.363 31.7227 116.398 31.6406 116.445 31.5703C116.727 31.3125 116.961 31.1836 117.148 31.1836C117.336 31.1602 117.535 31.1367 117.746 31.1133ZM105.758 32.3438C105.828 32.2969 105.875 32.2383 105.898 32.168C105.922 32.0977 105.957 32.0391 106.004 31.9922C106.215 31.9453 106.332 31.9219 106.355 31.9219C106.402 31.9219 106.449 31.8984 106.496 31.8516C106.613 31.8984 106.707 31.957 106.777 32.0273C106.871 32.0742 106.988 32.1094 107.129 32.1328C107.34 32.2734 107.387 32.4492 107.27 32.6602C107.152 32.8711 107.059 33.0586 106.988 33.2227C106.543 33.293 106.121 33.2344 105.723 33.0469C105.676 32.9062 105.676 32.7891 105.723 32.6953C105.77 32.5781 105.781 32.4609 105.758 32.3438Z" fill="#121721"/>
<path d="M20.004 18H18.024C17.2349 17.2064 16.2966 16.5768 15.263 16.1476C14.2294 15.7183 13.1211 15.4979 12.002 15.499C10.8827 15.4978 9.7742 15.7181 8.74046 16.1474C7.70672 16.5766 6.7682 17.2063 5.979 18H4C4.93113 16.7569 6.13929 15.748 7.52853 15.0535C8.91777 14.3589 10.4498 13.9979 12.003 13.999C13.5558 13.9982 15.0875 14.3594 16.4764 15.0539C17.8652 15.7484 19.0731 16.7572 20.004 18ZM3.5 24C3.5 23.662 3.51933 23.3287 3.558 23H2.05C2.018 23.33 2.00167 23.6634 2.001 24C2.001 29.524 6.479 34.002 12.003 34.002C17.189 34.002 21.453 30.055 21.955 25H21V26H20.267C19.7789 28.0236 18.5654 29.7978 16.8565 30.9864C15.1476 32.175 13.062 32.6953 10.995 32.4488C8.92803 32.2022 7.02334 31.2059 5.64193 29.6487C4.26052 28.0915 3.49839 26.0816 3.5 24ZM12.002 28.502C11.3204 28.5031 10.6475 28.3489 10.0343 28.0512C9.42116 27.7536 8.8838 27.3202 8.463 26.784C8.40295 26.7042 8.32755 26.6371 8.24124 26.5868C8.15492 26.5365 8.05942 26.504 7.96035 26.4911C7.86128 26.4782 7.76063 26.4852 7.66431 26.5118C7.56799 26.5383 7.47795 26.5838 7.39947 26.6457C7.32099 26.7075 7.25566 26.7844 7.2073 26.8718C7.15894 26.9592 7.12854 27.0554 7.11787 27.1548C7.10721 27.2541 7.1165 27.3546 7.1452 27.4503C7.1739 27.546 7.22143 27.635 7.285 27.712C7.84613 28.4264 8.5624 29.0038 9.37961 29.4006C10.1968 29.7973 11.0936 30.003 12.002 30.002C12.9091 30.0029 13.8045 29.7978 14.6208 29.4022C15.4371 29.0065 16.1528 28.4307 16.714 27.718C16.7751 27.6407 16.8203 27.5522 16.8472 27.4574C16.874 27.3627 16.8819 27.2635 16.8704 27.1657C16.859 27.0679 16.8283 26.9733 16.7803 26.8873C16.7323 26.8013 16.6678 26.7256 16.5905 26.6645C16.5132 26.6035 16.4247 26.5582 16.3299 26.5314C16.2351 26.5045 16.136 26.4966 16.0382 26.5081C15.9403 26.5196 15.8457 26.5502 15.7597 26.5982C15.6738 26.6462 15.5981 26.7107 15.537 26.788C15.1155 27.3227 14.5782 27.7547 13.9655 28.0516C13.3529 28.3485 12.6808 28.5025 12 28.502M3 19H22V22H21V24H20V25H15V24H14V22H12V24H11V25H6V24H5V22H4V21H2V20H3V19ZM1 22V21H2V22H1ZM1 22H0V24H1V22ZM7 21H6V22H7V23H8V22H7V21ZM16 21H15V22H16V23H17V22H16V21Z" fill="#121721"/>
</svg>
